<svg width="290" height="201" viewBox="0 0 290 201" fill="none" xmlns="http://www.w3.org/2000/svg">
    <path d="M171.496 195.076L180.014 194.063C179.63 190.84 179.197 186.967 179.167 186.332C179.167 186.373 179.167 186.406 179.167 186.432H170.59C170.591 186.689 170.591 187.472 171.496 195.076Z" fill="#F6A180"/>
    <path d="M205.673 196.102L214.25 196.074C214.25 196.074 214.222 187.217 214.222 186.432H205.645C205.645 187.219 205.673 196.102 205.673 196.102Z" fill="#F6A180"/>
    <path d="M168.332 192.11C169.041 174.136 169.085 155.256 169.307 137.234C172.256 117.794 173.808 96.4737 177.449 77.1715L177.558 77.2034L177.877 75.0268L208.95 73.1071L210.043 93.4067C211.607 120.601 214.632 164.319 216.461 191.878L201.402 193.153C198.712 166.049 194.735 122.871 192.305 96.1568C189.638 109.769 186.715 125.097 184.347 138.871C183.828 156.466 183.395 174.801 183.442 192.368L168.332 192.11Z" fill="#292A2E"/>
    <path d="M195.244 199.419C195.013 199.418 194.785 199.369 194.574 199.276C194.363 199.183 194.174 199.047 194.018 198.877C193.861 198.708 193.742 198.508 193.666 198.29C193.591 198.072 193.561 197.84 193.579 197.61C193.604 197.292 193.72 196.987 193.912 196.731C194.104 196.476 194.366 196.281 194.665 196.169L204.649 192.825C204.842 192.761 205.047 192.74 205.249 192.762C205.452 192.785 205.647 192.851 205.822 192.956C207.194 193.908 208.836 194.395 210.506 194.345C211.806 194.252 213.055 193.796 214.108 193.029C214.201 192.952 214.313 192.904 214.432 192.89C214.551 192.875 214.672 192.895 214.78 192.946C214.888 192.998 214.98 193.079 215.043 193.18C215.107 193.281 215.141 193.399 215.141 193.519V198.402C215.141 198.546 215.112 198.688 215.057 198.821C215.002 198.954 214.921 199.075 214.819 199.177C214.717 199.278 214.596 199.359 214.462 199.413C214.329 199.468 214.186 199.496 214.042 199.495L195.244 199.419Z" fill="#C1D8ED"/>
    <path d="M161.045 199.419C160.815 199.418 160.587 199.369 160.376 199.276C160.165 199.183 159.975 199.047 159.819 198.877C159.662 198.708 159.543 198.508 159.467 198.29C159.392 198.072 159.362 197.84 159.38 197.61C159.405 197.292 159.521 196.987 159.713 196.731C159.905 196.476 160.167 196.281 160.466 196.169L170.45 192.825C170.643 192.761 170.848 192.74 171.051 192.762C171.253 192.785 171.448 192.851 171.623 192.956C172.995 193.908 174.637 194.395 176.307 194.345C177.607 194.252 178.855 193.796 179.909 193.029C180.002 192.952 180.114 192.904 180.233 192.89C180.352 192.875 180.473 192.895 180.581 192.946C180.689 192.998 180.78 193.079 180.844 193.18C180.908 193.281 180.942 193.399 180.941 193.519V198.402C180.941 198.546 180.913 198.688 180.858 198.821C180.802 198.954 180.722 199.075 180.62 199.176C180.518 199.278 180.396 199.359 180.263 199.413C180.13 199.468 179.987 199.496 179.843 199.495L161.045 199.419Z" fill="#C1D8ED"/>
    <path d="M197.014 102.754V129.285C197.014 130.354 197.438 131.379 198.194 132.134C198.95 132.89 199.975 133.315 201.043 133.315H242.825C243.894 133.315 244.919 132.89 245.675 132.134C246.43 131.379 246.855 130.354 246.855 129.285V102.754C246.855 101.685 246.43 100.66 245.675 99.9045C244.919 99.1488 243.894 98.7242 242.825 98.7242H231.782V95.9244C231.781 94.9256 231.384 93.9682 230.677 93.2619C229.971 92.5557 229.014 92.1585 228.015 92.1573H215.853C214.854 92.1585 213.897 92.5557 213.191 93.2619C212.485 93.9682 212.087 94.9256 212.086 95.9244V98.7242H201.043C199.975 98.7242 198.95 99.1488 198.194 99.9045C197.438 100.66 197.014 101.685 197.014 102.754ZM229.331 98.7242H214.537V95.9244C214.537 95.5754 214.676 95.2408 214.923 94.994C215.17 94.7472 215.504 94.6084 215.853 94.6079H228.015C228.364 94.6084 228.699 94.7472 228.945 94.994C229.192 95.2408 229.331 95.5754 229.331 95.9244V98.7242Z" fill="#0CBC8B"/>
    <path d="M140.642 64.3937C139.457 64.671 135.348 64.9737 135.301 66.0462C135.272 66.6895 138.392 66.7104 138.392 66.7104" fill="#F6A180"/>
    <path d="M138.325 72.2851C143.224 71.1376 146.869 68.8164 146.467 67.1004C146.066 65.3844 141.769 64.9235 136.87 66.0709C131.971 67.2184 128.326 69.5396 128.728 71.2556C129.13 72.9716 133.427 73.4325 138.325 72.2851Z" fill="#F6A180"/>
    <path d="M218.074 87.0116C218.074 88.2288 217.432 92.2981 218.465 92.5889C219.085 92.7629 219.817 89.7298 219.817 89.7298" fill="#F6A180"/>
    <path d="M222.954 86.3729C222.954 86.3729 226.45 90.1395 224.073 94.6079C223.744 95.2275 220.531 95.5914 220.531 94.8321C220.531 91.6463 220.284 89.1474 218.186 89.9112V84.7795" fill="#F6A180"/>
    <path d="M161.961 55.3426L177.171 32.6139L177.261 32.674C178.568 30.6804 180.812 29.4064 184.521 29.248C184.777 29.2357 185.19 29.2275 185.721 29.2194C185.827 31.4658 199.739 31.4576 200.033 29.1663C203.962 29.1703 207.185 30.3753 209.052 32.2418C209.92 33.1012 210.585 34.143 211.001 35.2917L211.05 35.2696L220.923 57.4987C221.095 57.8849 221.21 58.2935 221.267 58.7122L225.102 87.2334L216.276 88.4203L212.527 60.531L208.636 51.7716C208.013 53.8655 207.661 56.031 207.591 58.2147C207.591 66.7961 211.471 70.6396 211.185 75.0426C210.736 81.9616 177.109 80.3279 175.398 76.3946C173.633 72.3428 177.215 69.8431 177.055 56.5851C176.991 54.2583 176.807 51.9365 176.502 49.6289L168.549 61.5146C168.019 62.3063 167.25 62.9075 166.353 63.23L141.456 72.1749L138.445 63.7929L161.961 55.3426Z" fill="#0075FF"/>
    <path d="M185.725 29.2202C185.83 31.4666 187.052 34.7709 190.822 35.0201C195.846 35.3509 199.742 31.4585 200.036 29.1671H200.024C195.078 29.1663 188.608 29.1745 185.725 29.2202Z" fill="#F6A180"/>
    <path d="M196.571 23.8655C196.556 22.9441 196.588 22.0225 196.669 21.1044C195.573 20.9002 191.314 20.1127 190.142 19.8954C190.369 20.6964 190.164 26.7532 188.917 28.436C188.606 29.0398 188.172 29.5715 187.643 29.9963H197.906C197.269 28.9016 196.616 27.0146 196.571 23.8655Z" fill="#F6A180"/>
    <path opacity="0.15" d="M188.91 28.4417L194.331 24.2944L190.073 24.2502C189.95 25.7077 189.556 27.1292 188.91 28.4417Z" fill="#292A2E"/>
    <path d="M200.37 17.7699C199.539 23.9064 193.619 25.2195 188.286 24.7612C181.142 24.1755 182.556 7.93338 185.947 4.77775C189.338 1.62211 199.294 3.62063 200.503 8.89771C201.129 11.6269 200.8 15.2862 200.37 17.7699Z" fill="#F6A180"/>
    <path d="M180.951 3.26978C180.946 1.10503 183.652 -2.41942 190.806 2.45698C194.729 2.52846 197.004 2.73717 199.891 4.89089C206.234 9.22243 200.722 22.8117 196.906 23.772C196.515 24.0044 196.42 23.8153 196.285 23.3811C195.859 21.7767 195.554 20.1426 195.373 18.4925C195.14 16.777 193.598 15.6865 193.784 13.632C193.85 12.9139 195.006 10.2828 191.427 10.2529C183.614 10.7745 180.075 9.56716 180.951 3.26978Z" fill="#292A2E"/>
    <path d="M193.231 16.6165C192.917 19.8567 198.014 20.2749 198.232 17.025C198.607 13.6798 193.152 13.4425 193.231 16.6165Z" fill="#F6A180"/>
    <path d="M194.332 8.65753L196.18 9.33391C195.616 10.8827 196.611 25.1938 191.405 25.3931C184.418 26.2582 183.165 24.1482 183.426 18.6334C194.128 19.8472 193.327 18.3148 194.332 8.65753Z" fill="#292A2E"/>
    <path d="M189.561 15.1199C189.553 15.2735 189.606 15.4242 189.707 15.5399C189.808 15.6556 189.951 15.7273 190.104 15.7399C190.257 15.7524 190.41 15.7047 190.528 15.607C190.647 15.5093 190.723 15.3692 190.74 15.2163C190.748 15.0627 190.696 14.9121 190.595 14.7964C190.493 14.6806 190.351 14.6089 190.198 14.5964C190.044 14.5839 189.892 14.6315 189.773 14.7292C189.655 14.827 189.579 14.9671 189.561 15.1199Z" fill="#292A2E"/>
    <path d="M184.892 14.7368C184.881 14.8919 184.932 15.045 185.034 15.1629C185.135 15.2807 185.279 15.354 185.434 15.3667C185.589 15.3794 185.743 15.3306 185.862 15.2308C185.981 15.1311 186.057 14.9884 186.072 14.8336C186.082 14.6784 186.031 14.5254 185.93 14.4075C185.828 14.2896 185.684 14.2164 185.529 14.2037C185.374 14.191 185.221 14.2398 185.101 14.3395C184.982 14.4393 184.907 14.582 184.892 14.7368Z" fill="#292A2E"/>
    <path d="M184.457 13.5242C184.457 13.5242 186.026 13.5042 186.028 13.5046C186.1 13.5011 186.168 13.4698 186.217 13.4173C186.266 13.3648 186.293 13.2953 186.292 13.2233C186.292 13.1512 186.263 13.0824 186.212 13.0312C186.161 12.98 186.093 12.9504 186.021 12.9487L184.453 12.9683C184.381 12.9715 184.314 13.0024 184.264 13.0545C184.214 13.1067 184.187 13.176 184.188 13.248C184.188 13.3199 184.216 13.3889 184.267 13.4404C184.317 13.4919 184.385 13.5219 184.457 13.5242Z" fill="#292A2E"/>
    <path d="M191.429 14.0955C192.555 13.549 190.196 13.2848 189.948 13.1753C189.877 13.1599 189.803 13.173 189.741 13.2116C189.68 13.2503 189.636 13.3115 189.619 13.3822C189.602 13.4529 189.613 13.5274 189.651 13.5898C189.688 13.6522 189.748 13.6975 189.818 13.7161C189.896 13.7259 191.349 14.1008 191.429 14.0955Z" fill="#292A2E"/>
    <g opacity="0.15">
        <path d="M187.523 18.4508C188.363 18.0726 186.543 17.7847 186.38 17.6817L187.221 15.8066C187.066 14.533 186.014 17.6674 185.914 17.7262C185.722 18.14 187.34 18.3258 187.523 18.4508Z" fill="#292A2E"/>
    </g>
    <path d="M189.878 19.8293C189.878 19.8293 187.693 20.0597 186.161 19.5246C186.098 21.4026 189.64 21.6861 189.878 19.8293Z" fill="#F8FCFF"/>
    <path d="M64.9674 18.1461C64.9674 11.3984 61.4979 6 54.8293 6C48.8121 6 45 11.4778 45 18.1461" fill="#C1D8ED"/>
    <path d="M54.8301 6.00159C61.4924 6.00159 64.957 11.3907 64.9679 18.1286C64.9735 18.1773 64.976 18.2263 64.9756 18.2753V82.7964C64.968 84.3963 65.2765 85.9819 65.8835 87.4621C66.4905 88.9424 67.3839 90.2881 68.5125 91.4221C69.6411 92.5561 70.9826 93.4559 72.46 94.0699C73.9373 94.6839 75.5214 95 77.1213 95C78.7212 95 80.3053 94.6839 81.7827 94.0699C83.26 93.4559 84.6015 92.5561 85.7301 91.4221C86.8587 90.2881 87.7521 88.9424 88.3591 87.4621C88.9661 85.9819 89.2746 84.3963 89.267 82.7964H127.952V19.4962C127.952 12.2715 123.781 6.317 116.557 6.00159H54.8301Z" fill="white"/>
    <path d="M77.1211 94.9419H127.951C129.546 94.9419 131.125 94.6278 132.599 94.0174C134.073 93.407 135.411 92.5124 136.539 91.3845C137.667 90.2567 138.562 88.9177 139.172 87.4441C139.783 85.9705 140.097 84.3911 140.097 82.796H89.267C89.2736 84.3929 88.964 85.9753 88.356 87.4519C87.748 88.9285 86.8536 90.2701 85.7244 91.3993C84.5952 92.5285 83.2536 93.4229 81.777 94.0309C80.3004 94.6389 78.718 94.9485 77.1211 94.9419Z" fill="#C1D8ED"/>
    <path d="M83.5488 32.1046H109.623C110.799 32.1046 111.752 31.1514 111.752 29.9757C111.752 28.7999 110.799 27.8468 109.623 27.8468L83.5488 27.8468C82.3729 27.8468 81.4197 28.7999 81.4197 29.9757C81.4197 31.1514 82.3729 32.1046 83.5488 32.1046Z" fill="#E0ECFF"/>
    <path d="M117.07 42.4716H76.0985C75.5975 42.4716 75.1914 42.8777 75.1914 43.3786V43.3789C75.1914 43.8799 75.5975 44.286 76.0985 44.286H117.07C117.571 44.286 117.978 43.8799 117.978 43.3789V43.3786C117.978 42.8777 117.571 42.4716 117.07 42.4716Z" fill="#E0ECFF"/>
    <path d="M117.07 38.1146H76.0985C75.5975 38.1146 75.1914 38.5207 75.1914 39.0217V39.022C75.1914 39.523 75.5975 39.9291 76.0985 39.9291H117.07C117.571 39.9291 117.978 39.523 117.978 39.022V39.0217C117.978 38.5207 117.571 38.1146 117.07 38.1146Z" fill="#E0ECFF"/>
    <path d="M117.07 46.8288H76.0985C75.5975 46.8288 75.1914 47.2349 75.1914 47.7359V47.7362C75.1914 48.2371 75.5975 48.6432 76.0985 48.6432H117.07C117.571 48.6432 117.978 48.2371 117.978 47.7362V47.7359C117.978 47.2349 117.571 46.8288 117.07 46.8288Z" fill="#E0ECFF"/>
    <path d="M117.07 51.1858H76.0985C75.5975 51.1858 75.1914 51.5919 75.1914 52.0929V52.0931C75.1914 52.5941 75.5975 53.0002 76.0985 53.0002H117.07C117.571 53.0002 117.978 52.5941 117.978 52.0931V52.0929C117.978 51.5919 117.571 51.1858 117.07 51.1858Z" fill="#E0ECFF"/>
    <path d="M117.07 55.5431H76.0985C75.5975 55.5431 75.1914 55.9492 75.1914 56.4502V56.4504C75.1914 56.9514 75.5975 57.3575 76.0985 57.3575H117.07C117.571 57.3575 117.978 56.9514 117.978 56.4504V56.4502C117.978 55.9492 117.571 55.5431 117.07 55.5431Z" fill="#E0ECFF"/>
    <path d="M117.07 64.2573H76.0985C75.5975 64.2573 75.1914 64.6634 75.1914 65.1644V65.1647C75.1914 65.6657 75.5975 66.0718 76.0985 66.0718H117.07C117.571 66.0718 117.978 65.6657 117.978 65.1647V65.1644C117.978 64.6634 117.571 64.2573 117.07 64.2573Z" fill="#E0ECFF"/>
    <path d="M117.07 59.9003H76.0985C75.5975 59.9003 75.1914 60.3064 75.1914 60.8074V60.8076C75.1914 61.3086 75.5975 61.7147 76.0985 61.7147H117.07C117.571 61.7147 117.978 61.3086 117.978 60.8076V60.8074C117.978 60.3064 117.571 59.9003 117.07 59.9003Z" fill="#E0ECFF"/>
    <path d="M104.75 68.6144H88.4208C87.9198 68.6144 87.5137 69.0205 87.5137 69.5215V69.5217C87.5137 70.0227 87.9198 70.4288 88.4208 70.4288H104.75C105.251 70.4288 105.657 70.0227 105.657 69.5217V69.5215C105.657 69.0205 105.251 68.6144 104.75 68.6144Z" fill="#E0ECFF"/>
    <path d="M130.642 31.4304C136.006 31.4304 140.354 27.0822 140.354 21.7184C140.354 16.3546 136.006 12.0063 130.642 12.0063C125.278 12.0063 120.93 16.3546 120.93 21.7184C120.93 27.0822 125.278 31.4304 130.642 31.4304Z" fill="#0CBC8B"/>
    <path d="M129.209 25.7006C129.042 25.7005 128.882 25.6368 128.76 25.5223L125.586 22.5269C125.524 22.4679 125.473 22.3972 125.438 22.3188C125.403 22.2404 125.384 22.1559 125.381 22.07C125.379 21.9841 125.393 21.8986 125.424 21.8183C125.454 21.738 125.5 21.6645 125.559 21.602C125.618 21.5395 125.689 21.4893 125.767 21.4541C125.846 21.419 125.93 21.3996 126.016 21.3971C126.102 21.3946 126.188 21.4091 126.268 21.4396C126.348 21.4702 126.422 21.5163 126.484 21.5753L129.173 24.1129L134.766 17.9504C134.883 17.8271 135.045 17.7547 135.215 17.7486C135.386 17.7426 135.552 17.8034 135.678 17.9181C135.805 18.0328 135.881 18.1923 135.891 18.3626C135.902 18.5329 135.845 18.7005 135.734 18.8297L129.693 25.4863C129.635 25.5507 129.564 25.6028 129.485 25.6396C129.406 25.6764 129.321 25.6971 129.234 25.7006H129.209Z" fill="white"/>
</svg>
