<svg width="258" height="92" viewBox="0 0 258 92" fill="none" xmlns="http://www.w3.org/2000/svg">
    <path d="M46.8518 0C37.6621 0.000211028 28.6754 2.70291 21.01 7.77175C13.3446 12.8406 7.33911 20.0517 3.74089 28.5077C0.14266 36.9637 -0.889403 46.2912 0.773145 55.3293C2.43569 64.3673 6.71944 72.717 13.0912 79.339C13.9891 80.272 14.925 81.1672 15.8991 82.0245C24.1538 89.2915 36.0314 91.8512 47.8984 91.8512C61.1571 91.8512 72.0814 88.1842 80.5984 79.3249C86.9696 72.7049 91.2534 64.3575 92.9165 55.3214C94.5796 46.2853 93.5486 36.9596 89.9519 28.505C86.3551 20.0504 80.3514 12.8403 72.6879 7.77189C65.0245 2.70352 56.0397 0.000762679 46.8518 0Z" fill="white"/>
    <path d="M255 40H108C106.343 40 105 41.3431 105 43C105 44.6569 106.343 46 108 46H255C256.657 46 258 44.6569 258 43C258 41.3431 256.657 40 255 40Z" fill="white"/>
    <path d="M255 22H108C106.343 22 105 23.3431 105 25C105 26.6569 106.343 28 108 28H255C256.657 28 258 26.6569 258 25C258 23.3431 256.657 22 255 22Z" fill="#0CBC8B"/>
    <path d="M255 58H108C106.343 58 105 59.3431 105 61C105 62.6569 106.343 64 108 64H255C256.657 64 258 62.6569 258 61C258 59.3431 256.657 58 255 58Z" fill="white"/>
    <path d="M255 76H108C106.343 76 105 77.3431 105 79C105 80.6569 106.343 82 108 82H255C256.657 82 258 80.6569 258 79C258 77.3431 256.657 76 255 76Z" fill="white"/>
    <path d="M66.6285 80.6359C66.497 80.6317 66.3472 80.6272 66.1804 80.6223C64.8617 80.5842 63.7874 81.6402 63.55 82.9379C63.121 85.2821 65.4837 88.0841 67.5798 86.9503C68.4008 86.5062 69.207 86.0348 69.9969 85.5369C72.185 84.1576 71.5464 81.0771 68.9748 80.7982C68.1959 80.7137 67.4132 80.6595 66.6285 80.6359ZM30.1969 80.7016C30.1958 80.6948 30.1913 80.6887 30.1913 80.6819C30.1913 80.6754 30.1937 80.6685 30.1915 80.6625C30.1813 80.6345 30.1724 80.6061 30.1648 80.5773C30.1449 80.5013 30.0804 80.4415 30.0018 80.4415C28.3186 80.4402 26.6387 80.5475 24.9727 80.7622C22.8389 81.0372 22.2398 83.6114 24.0239 84.8138C24.8674 85.3822 25.7305 85.9194 26.6114 86.4245C28.7569 87.6544 31.0056 83.7517 30.3467 81.3681C30.2839 81.1409 30.2339 80.9185 30.1969 80.7016Z" fill="#0075FF"/>
    <path d="M56.9003 80.5053C60.6945 80.5292 63.812 83.8202 62.1305 87.2215C61.6472 88.199 61.0644 89.1306 60.3878 90.0006C60.3791 90.0117 60.3663 90.0214 60.353 90.0264C60.3486 90.0281 60.344 90.0285 60.3394 90.03C59.9081 90.1675 59.4768 90.2959 59.0455 90.4152C58.8871 90.4611 58.7413 90.4944 58.5932 90.5356C58.1599 90.6552 57.7353 90.7661 57.302 90.8675C56.8219 90.9784 56.3419 91.0798 55.8626 91.1844C55.217 91.3135 54.5706 91.422 53.9155 91.5163C53.5099 91.5812 53.0948 91.6454 52.6797 91.6913C52.5783 91.7008 52.4769 91.7191 52.3628 91.7286C51.9564 91.7745 51.5596 91.8078 51.1445 91.8395C50.6097 91.8949 50.056 91.9314 49.5118 91.9504L48.8567 91.9773C48.4321 91.9868 47.9988 91.9963 47.5742 91.9963C46.058 91.9963 44.5429 91.917 43.035 91.7587C42.7673 91.731 42.4908 91.6937 42.2231 91.6573C41.9553 91.6208 41.6884 91.5923 41.4206 91.5464C41.2178 91.5186 41.0055 91.4909 40.7932 91.4545C40.5809 91.418 40.3591 91.38 40.1381 91.3436C39.8095 91.2887 39.4801 91.2245 39.1515 91.1609C39.1449 91.1597 39.139 91.1592 39.1325 91.1574C39.1146 91.1523 39.0957 91.1446 39.0796 91.1352C34.0709 88.2326 30.7335 83.8745 30.1942 80.7071C30.193 80.7003 30.1885 80.6942 30.1885 80.6874C30.1885 80.6809 30.1912 80.674 30.1893 80.6678C30.1711 80.6076 30.158 80.5459 30.1503 80.4836C30.1479 80.4641 30.1633 80.4473 30.1829 80.4473C38.7388 80.4432 49.2445 80.4572 56.9003 80.5053Z" fill="#F6A180"/>
    <path d="M64.9999 60.2637C70.0837 60.2637 74.2049 56.1424 74.2049 51.0587C74.2049 45.9749 70.0837 41.8537 64.9999 41.8537C59.9161 41.8537 55.7949 45.9749 55.7949 51.0587C55.7949 56.1424 59.9161 60.2637 64.9999 60.2637Z" fill="#DEE8F5"/>
    <path d="M66.6042 52.1321C66.9476 52.0655 67.2663 51.9063 67.5258 51.6718C67.7853 51.4372 67.9759 51.1362 68.0768 50.8013C68.3145 50.0036 70.8542 31.2451 63.51 19.9432C62.3378 17.9985 60.72 16.3603 58.7901 15.1639C56.8601 13.9675 54.6733 13.2472 52.4101 13.0625C51.9034 13.0102 51.3967 13.1612 51.0013 13.4823C50.6059 13.8035 50.3541 14.2685 50.3014 14.7751C50.1921 15.8303 50.9589 15.8145 52.0141 15.9238C57.1354 16.4537 57.9109 18.465 60.3144 22.0734C66.7951 31.802 64.4535 49.5148 64.4004 49.6931C64.3274 49.9346 64.3028 50.1881 64.3279 50.4391C64.353 50.6901 64.4274 50.9337 64.5467 51.156C64.6661 51.3783 64.828 51.5748 65.0234 51.7344C65.2188 51.894 65.4437 52.0136 65.6853 52.0862C65.9832 52.1765 66.2987 52.1923 66.6042 52.1321Z" fill="#C1D8ED"/>
    <path d="M62.6229 60.0467C67.7067 60.0467 71.8279 55.9255 71.8279 50.8417C71.8279 45.7579 67.7067 41.6367 62.6229 41.6367C57.5392 41.6367 53.418 45.7579 53.418 50.8417C53.418 55.9255 57.5392 60.0467 62.6229 60.0467Z" fill="#C1D8ED"/>
    <path d="M51.8474 83.7902C48.0142 84.2304 39.3466 72.88 39.4619 69.0233C39.495 67.9166 39.4956 66.7405 39.4582 65.4911C39.3944 63.3593 40.8403 61.4429 42.9373 61.054L45.9681 60.492C50.2888 59.6908 54.2475 63.272 54.6032 67.6519C54.8068 70.158 55.219 72.8947 56.0022 75.4204C56.9399 78.4446 54.993 83.429 51.8474 83.7902Z" fill="#F6A180"/>
    <g opacity="0.15">
        <path d="M54.959 70.9637C55.2741 73.0335 52.4308 75.1292 50.768 73.8571L49.8936 73.1881C48.2025 71.8943 49.1018 69.1928 51.231 69.1707L52.9031 69.1534C53.9403 69.1427 54.8029 69.9382 54.959 70.9637Z" fill="#292A2E"/>
    </g>
    <path d="M30.5335 53.8963C31.5958 60.0316 34.9443 65.8421 40.3564 67.8242C46.7816 70.1769 51.5402 70.3361 58.9485 70.3361C69.0566 70.3361 68.7231 59.7932 69.0091 49.1694C69.2942 38.5037 68.4458 27.0616 64.4509 23.3448C56.4754 15.9261 33.07 20.6245 30.223 33.033C28.7487 39.4511 29.5227 48.0556 30.5335 53.8963Z" fill="#F6A180"/>
    <path d="M54.2543 49.1694C55.0226 49.1694 55.6454 48.5466 55.6454 47.7784C55.6454 47.0101 55.0226 46.3873 54.2543 46.3873C53.4861 46.3873 52.8633 47.0101 52.8633 47.7784C52.8633 48.5466 53.4861 49.1694 54.2543 49.1694Z" fill="#292A2E"/>
    <path d="M65.2348 48.2688C66.0031 48.2688 66.6258 47.646 66.6258 46.8777C66.6258 46.1095 66.0031 45.4867 65.2348 45.4867C64.4666 45.4867 63.8438 46.1095 63.8438 46.8777C63.8438 47.646 64.4666 48.2688 65.2348 48.2688Z" fill="#292A2E"/>
    <path d="M67.645 43.915H67.6371L63.9504 43.8691C63.8645 43.8681 63.7797 43.8503 63.7007 43.8165C63.6218 43.7827 63.5503 43.7337 63.4903 43.6723C63.4303 43.6108 63.3831 43.5382 63.3512 43.4584C63.3194 43.3787 63.3036 43.2935 63.3047 43.2076C63.3046 43.1214 63.3217 43.0361 63.3551 42.9567C63.3885 42.8773 63.4375 42.8053 63.4992 42.7451C63.5608 42.685 63.6339 42.6377 63.7141 42.6063C63.7944 42.5748 63.8801 42.5598 63.9662 42.562L67.6529 42.6079C67.8263 42.609 67.9921 42.6788 68.1139 42.8021C68.2357 42.9255 68.3036 43.0921 68.3025 43.2654C68.3015 43.4388 68.2316 43.6046 68.1083 43.7264C67.985 43.8482 67.8183 43.9161 67.645 43.915Z" fill="#292A2E"/>
    <path d="M51.2515 45.2569C51.0914 45.2568 50.9369 45.1979 50.8172 45.0915C50.6975 44.9851 50.621 44.8386 50.6022 44.6795C50.5834 44.5205 50.6235 44.3601 50.715 44.2287C50.8065 44.0973 50.943 44.004 51.0986 43.9664L54.7339 43.0951C54.8194 43.0679 54.9096 43.0587 54.9988 43.0679C55.088 43.0772 55.1744 43.1047 55.2525 43.1487C55.3307 43.1928 55.3989 43.2524 55.453 43.324C55.5071 43.3956 55.5458 43.4775 55.5668 43.5647C55.5879 43.6519 55.5908 43.7425 55.5753 43.8309C55.5598 43.9192 55.5262 44.0034 55.4768 44.0783C55.4273 44.1531 55.363 44.217 55.2878 44.2659C55.2126 44.3148 55.1281 44.3477 55.0397 44.3625L51.4044 45.2339C51.3546 45.2478 51.3033 45.2555 51.2515 45.2569Z" fill="#292A2E"/>
    <path d="M41.9042 33.1415C42.9879 53.8559 40.9607 63.4815 39.8335 67.0922C39.7592 67.3301 39.6319 67.5479 39.4612 67.7294C39.2904 67.9109 39.0806 68.0512 38.8477 68.1398C38.6148 68.2283 38.3648 68.2629 38.1166 68.2407C37.8685 68.2186 37.6285 68.1403 37.415 68.0119C33.8075 65.8683 25.6117 59.1848 22.8391 41.712C20.3612 26.0548 32.0187 19.1479 39.721 16.8435C46.3609 14.8575 55.3599 15.2409 62.5211 19.803C65.8067 21.8962 67.7187 24.7957 68.8219 27.6362C70.8898 32.9606 66.0112 37.564 60.3048 37.8119C49.0959 38.2987 35.8845 38.8475 35.8845 38.8475" fill="#292A2E"/>
    <path d="M47.0173 51.1839C47.1366 52.7388 46.6355 54.2777 45.6235 55.4642C44.6115 56.6507 43.1709 57.3882 41.6166 57.5157C40.0623 57.6431 38.5208 57.15 37.3291 56.1441C36.1374 55.1383 35.3923 53.7015 35.2568 52.148C35.18 51.3732 35.2599 50.591 35.4918 49.8478C35.7236 49.1047 36.1027 48.4157 36.6064 47.8221C37.11 47.2285 37.728 46.7423 38.4235 46.3925C39.119 46.0427 39.8778 45.8365 40.6546 45.7861C44.8595 45.6482 46.7512 47.936 47.0173 51.1839Z" fill="#F6A180"/>
    <g opacity="0.15">
        <path d="M60.4331 55.4973C60.3178 55.4978 60.2062 55.4567 60.1187 55.3816C60.0312 55.3066 59.9736 55.2025 59.9565 55.0885C59.9394 54.9745 59.9639 54.8581 60.0255 54.7607C60.0871 54.6632 60.1818 54.5912 60.2921 54.5578C61.7955 54.0949 62.5536 52.4198 61.9091 50.9849L61.1421 49.2772C61.1101 49.2193 61.0904 49.1553 61.0843 49.0894C61.0782 49.0235 61.0858 48.957 61.1066 48.8942C61.1274 48.8313 61.161 48.7735 61.2052 48.7242C61.2495 48.675 61.3034 48.6354 61.3637 48.608C61.4239 48.5806 61.4892 48.566 61.5554 48.5651C61.6216 48.5641 61.6873 48.5768 61.7483 48.6025C61.8093 48.6281 61.8644 48.6661 61.91 48.7141C61.9557 48.762 61.9909 48.8189 62.0135 48.8811L64.2165 53.7862C64.2453 53.8482 64.2603 53.9157 64.2606 53.984C64.2609 54.0524 64.2465 54.12 64.2183 54.1822C64.1901 54.2445 64.1488 54.2999 64.0972 54.3448C64.0457 54.3896 63.985 54.4228 63.9195 54.4421L60.5694 55.4719C60.5254 55.4868 60.4795 55.4954 60.4331 55.4973Z" fill="#292A2E"/>
    </g>
    <path d="M57.7269 61.6202C55.6551 61.1058 55.6039 58.8673 57.7386 58.8538C59.9633 58.8397 63.1264 60.6987 61.0286 61.4392C60.6061 61.5883 60.1152 61.6951 59.5449 61.7419C58.8388 61.7999 58.2379 61.747 57.7269 61.6202Z" fill="white"/>
    <path d="M31.5258 51.0303C31.5536 51.0247 31.5821 51.0192 31.6098 51.0121C32.1048 50.8926 32.5321 50.5816 32.7978 50.1472C33.0635 49.7129 33.146 49.1908 33.027 48.6958C32.9898 48.5373 29.3133 32.7851 36.4404 23.2545C39.8008 18.759 45.1361 16.2961 52.3075 15.9309C53.3524 15.881 54.1818 15.9373 54.1295 14.8758C54.081 14.3756 53.8475 13.9116 53.4747 13.5746C53.1019 13.2375 52.6168 13.0518 52.1143 13.0538C45.5115 12.5587 37.4338 15.504 33.3557 20.966C25.1513 31.9557 29.1216 48.8803 29.2951 49.5965C29.4112 50.0765 29.7078 50.4933 30.1232 50.7603C30.5386 51.0273 31.041 51.124 31.5258 51.0303Z" fill="#C1D8ED"/>
    <path d="M34.2597 60.6012C39.3434 60.6012 43.4647 56.48 43.4647 51.3963C43.4647 46.3125 39.3434 42.1913 34.2597 42.1913C29.1759 42.1913 25.0547 46.3125 25.0547 51.3963C25.0547 56.48 29.1759 60.6012 34.2597 60.6012Z" fill="#C1D8ED"/>
    <path d="M31.4315 60.8777C36.5153 60.8777 40.6365 56.7565 40.6365 51.6727C40.6365 46.5889 36.5153 42.4677 31.4315 42.4677C26.3478 42.4677 22.2266 46.5889 22.2266 51.6727C22.2266 56.7565 26.3478 60.8777 31.4315 60.8777Z" fill="#DEE8F5"/>
    <path d="M32.543 56.531C32.543 56.531 33.7312 61.6088 34.2588 62.4723C35.3678 64.3109 51.105 63.4807 51.105 63.4807" stroke="#DEE8F5" strokeWidth="2.88111" strokeLinecap="round" strokeLinejoin="round"/>
    <path d="M50.7675 65.7676H52.7186C53.9624 65.7676 54.9707 64.7593 54.9707 63.5155C54.9707 62.2717 53.9624 61.2634 52.7186 61.2634H50.7675C49.5236 61.2634 48.5153 62.2717 48.5153 63.5155C48.5153 64.7593 49.5236 65.7676 50.7675 65.7676Z" fill="#C1D8ED"/>
</svg>
