<svg width="208" height="132" viewBox="0 0 208 132" fill="none" xmlns="http://www.w3.org/2000/svg">
    <path d="M25.3894 106.29C28.9187 106.491 31.9426 103.793 32.1435 100.264C32.3443 96.7346 29.6461 93.7107 26.1169 93.5098C22.5876 93.309 19.5637 96.0072 19.3628 99.5364C19.1619 103.066 21.8601 106.09 25.3894 106.29Z" fill="#0CBC8B"/>
    <g opacity="0.29">
        <path d="M25.5186 104.043C27.8064 104.173 29.7667 102.424 29.8969 100.136C30.0271 97.848 28.278 95.8878 25.9902 95.7576C23.7023 95.6274 21.7421 97.3765 21.6119 99.6643C21.4816 101.952 23.2307 103.912 25.5186 104.043Z" fill="white"/>
    </g>
    <path d="M23.7134 100.866L24.3332 100.902L24.3642 100.359L23.7444 100.323L23.7832 99.6408L24.403 99.676L24.5445 97.1899L26.3343 97.2917C26.6082 97.3073 26.855 97.3493 27.0747 97.4177C27.2946 97.4815 27.48 97.5805 27.6307 97.7149C27.7817 97.8446 27.8932 98.0116 27.9654 98.216C28.0423 98.4206 28.0724 98.6692 28.0557 98.9617C28.055 98.9756 28.0543 98.9872 28.0538 98.9965C28.04 99.238 27.9809 99.4582 27.8764 99.6572C27.772 99.8561 27.6346 100.018 27.4645 100.144C27.2946 100.264 27.094 100.351 26.8628 100.403C26.6317 100.455 26.3837 100.473 26.1191 100.458L25.172 100.404L25.1411 100.948L26.5409 101.027L26.5044 101.668L25.1046 101.588L25.0721 102.159L24.2643 102.113L24.2968 101.542L23.677 101.507L23.7134 100.866ZM26.1231 99.7739C26.2717 99.7824 26.4096 99.7739 26.5368 99.7486C26.6686 99.7235 26.7853 99.6789 26.8867 99.6148C26.9882 99.5507 27.07 99.4645 27.132 99.3563C27.1987 99.2483 27.239 99.1132 27.2529 98.9509C27.2627 98.7792 27.2475 98.6362 27.2074 98.5222C27.1676 98.4035 27.1031 98.309 27.014 98.2387C26.9297 98.164 26.8233 98.1114 26.6946 98.0808C26.5662 98.0455 26.4161 98.023 26.2443 98.0132L25.3111 97.9601L25.2108 99.722L26.1231 99.7739Z" fill="white"/>
    <path d="M16.675 39.8394C19.4372 36.6158 19.063 31.7634 15.8394 29.0013C12.6158 26.2391 7.76338 26.6133 5.00126 29.8369C2.23913 33.0605 2.61326 37.9129 5.83688 40.675C9.06051 43.4372 13.9129 43.063 16.675 39.8394Z" fill="#0CBC8B"/>
    <g opacity="0.29">
        <path d="M14.6221 38.0804C16.4126 35.9907 16.1701 32.8452 14.0804 31.0546C11.9907 29.2641 8.8451 29.5066 7.05456 31.5963C5.26401 33.686 5.50654 36.8316 7.59625 38.6221C9.68596 40.4127 12.8315 40.1702 14.6221 38.0804Z" fill="white"/>
    </g>
    <path d="M10.8797 38.0065L11.3647 37.4404L10.8686 37.0153L10.3835 37.5814L9.76014 37.0472L10.2452 36.4811L7.97437 34.5354L9.37509 32.9006C9.58947 32.6504 9.80931 32.4453 10.0346 32.2854C10.2557 32.1218 10.4852 32.017 10.7232 31.9709C10.957 31.9212 11.1978 31.9363 11.4456 32.0162C11.6969 32.0919 11.9562 32.2442 12.2234 32.4731C12.2361 32.484 12.2467 32.4931 12.2552 32.5003C12.4757 32.6893 12.6429 32.9061 12.7568 33.1508C12.8707 33.3955 12.9256 33.6447 12.9214 33.8985C12.913 34.1487 12.8494 34.4031 12.7307 34.6617C12.6121 34.9204 12.4492 35.1706 12.2421 35.4123L11.5008 36.2774L11.997 36.7025L13.0925 35.424L13.6777 35.9254L12.5822 37.2039L13.1038 37.6509L12.4715 38.3887L11.95 37.9418L11.4649 38.5079L10.8797 38.0065ZM11.5914 34.91C11.7077 34.7743 11.8001 34.6365 11.8685 34.4965C11.9405 34.3524 11.9829 34.2085 11.9956 34.0649C12.0083 33.9214 11.9856 33.7806 11.9274 33.6425C11.8728 33.5001 11.7732 33.3633 11.6284 33.2318C11.4715 33.0974 11.324 33.0078 11.1859 32.963C11.0435 32.9146 10.9063 32.9073 10.7743 32.9413C10.6416 32.9673 10.5139 33.0306 10.3909 33.1312C10.2637 33.2281 10.1329 33.3551 9.99848 33.512L9.26814 34.3643L10.8775 35.7433L11.5914 34.91Z" fill="white"/>
    <path d="M52.8312 22.8613C52.7261 12.7143 56.7367 6.42637 62.1736 2.97396C67.5389 -0.43273 84.3635 -3.39789 90.7422 8.96842C94.905 17.0382 93.2617 19.9228 94.441 32.8473C95.6202 45.7719 100.15 47.1285 104.746 62.7944C108.349 75.0829 88.1626 81.6063 70.6849 81.0426C53.2072 80.4789 42.1252 76.6068 41.1111 65.4921C39.6528 49.5375 53.0359 42.746 52.8312 22.8613Z" fill="#292A2E"/>
    <path d="M63.2461 50.9195C63.2461 50.9195 68.4967 48.0731 67.1871 33.7147L78.0705 31.5931C78.0705 31.5931 76.9636 44.491 82.5166 48.5269L63.2461 50.9195Z" fill="#F6A180"/>
    <g opacity="0.15">
        <path d="M80.2574 45.8504L71.1367 39.0049L78.2497 38.8684C78.4782 41.3005 79.1592 43.6684 80.2574 45.8504Z" fill="#292A2E"/>
    </g>
    <path d="M60.9499 28.1945C61.7449 32.5471 64.1614 36.6567 68.0199 38.0263C72.2269 39.6513 76.7676 40.2225 81.246 39.6901C93.1722 38.6016 90.5626 11.4859 84.8479 6.26668C79.1332 1.04746 62.5324 4.53809 60.5916 13.3728C59.5878 17.9444 60.1938 24.0535 60.9499 28.1945Z" fill="#F6A180"/>
    <path d="M77.981 24.6821C78.5271 24.6821 78.9699 24.2394 78.9699 23.6933C78.9699 23.1471 78.5271 22.7044 77.981 22.7044C77.4349 22.7044 76.9922 23.1471 76.9922 23.6933C76.9922 24.2394 77.4349 24.6821 77.981 24.6821Z" fill="#292A2E"/>
    <path d="M85.7779 23.9703C86.324 23.9703 86.7668 23.5276 86.7668 22.9815C86.7668 22.4353 86.324 21.9926 85.7779 21.9926C85.2318 21.9926 84.7891 22.4353 84.7891 22.9815C84.7891 23.5276 85.2318 23.9703 85.7779 23.9703Z" fill="#292A2E"/>
    <path d="M87.4665 20.8591C87.5897 20.8591 87.708 20.8101 87.7951 20.7229C87.8823 20.6358 87.9312 20.5176 87.9312 20.3943C87.9312 20.2711 87.8823 20.1529 87.7951 20.0657C87.708 19.9785 87.5897 19.9296 87.4665 19.9296L84.8473 19.9214C84.7272 19.926 84.6136 19.9769 84.5303 20.0635C84.4469 20.1501 84.4004 20.2656 84.4004 20.3858C84.4004 20.506 84.4469 20.6215 84.5303 20.708C84.6136 20.7946 84.7272 20.8456 84.8473 20.8502L87.4665 20.8591Z" fill="#292A2E"/>
    <path d="M75.8275 21.9203C75.8657 21.9204 75.9038 21.9158 75.9408 21.9066L78.5177 21.2617C78.6346 21.2295 78.7343 21.1528 78.7954 21.048C78.8566 20.9433 78.8744 20.8188 78.845 20.7011C78.8156 20.5834 78.7413 20.4819 78.6381 20.4182C78.5349 20.3545 78.4108 20.3337 78.2925 20.3602L75.7156 21.0058C75.6056 21.0331 75.5094 21.0997 75.4451 21.1931C75.3808 21.2864 75.353 21.4001 75.3667 21.5126C75.3805 21.6251 75.435 21.7287 75.5198 21.8038C75.6047 21.8789 75.7142 21.9203 75.8275 21.9203Z" fill="#292A2E"/>
    <path d="M78.5117 31.4763C78.5117 31.4763 82.1654 31.8278 84.7157 30.9099C84.7157 30.9099 84.7157 33.3141 81.8311 33.5775C78.9464 33.8409 78.5117 31.4763 78.5117 31.4763Z" fill="white"/>
    <path d="M68.8769 16.828C68.6176 36.5181 66.7198 44.1668 66.7198 44.1668C66.7198 44.1668 57.3964 32.9006 55.9892 20.9642C54.6701 9.77846 62.8606 3.09133 68.4245 1.79335C89.5662 -3.13789 91.0341 12.283 91.0341 12.283C89.6692 17.5438 66.5874 20.8079 66.5874 20.8079" fill="#292A2E"/>
    <path d="M73.0298 28.0001C73.1257 29.1046 72.7803 30.2021 72.069 31.0525C71.3577 31.9029 70.3385 32.437 69.2345 32.5378C68.1304 32.6386 67.0314 32.2979 66.1778 31.5903C65.3243 30.8828 64.7858 29.8659 64.6802 28.7623C64.6207 28.2124 64.6724 27.6561 64.8323 27.1265C64.9921 26.597 65.257 26.105 65.6109 25.6799C65.9649 25.2548 66.4008 24.9053 66.8926 24.6522C67.3845 24.399 67.9222 24.2474 68.4739 24.2064C71.4609 24.0815 72.8189 25.6948 73.0298 28.0001Z" fill="#F6A180"/>
    <g opacity="0.15">
        <path d="M82.4206 29.1369C82.3393 29.1368 82.2608 29.1076 82.1991 29.0547C82.1374 29.0017 82.0966 28.9285 82.0841 28.8482C82.0716 28.7679 82.0882 28.6858 82.1309 28.6166C82.1735 28.5474 82.2395 28.4958 82.3169 28.4709L84.3225 27.8349L82.8894 24.7148C82.8692 24.6739 82.8573 24.6294 82.8546 24.5838C82.8518 24.5383 82.8582 24.4926 82.8735 24.4496C82.8887 24.4066 82.9123 24.3671 82.9431 24.3334C82.9738 24.2997 83.011 24.2725 83.0525 24.2534C83.0939 24.2343 83.1388 24.2237 83.1844 24.2223C83.23 24.2208 83.2754 24.2286 83.318 24.245C83.3606 24.2614 83.3994 24.2862 83.4322 24.3179C83.465 24.3496 83.4912 24.3876 83.5091 24.4295L85.1066 27.9004C85.1268 27.9442 85.1375 27.9917 85.1379 28.04C85.1384 28.0882 85.1286 28.1359 85.1093 28.1801C85.09 28.2243 85.0615 28.2639 85.0257 28.2962C84.99 28.3286 84.9478 28.353 84.9019 28.3678L82.5284 29.1185C82.4937 29.1304 82.4573 29.1366 82.4206 29.1369Z" fill="#292A2E"/>
    </g>
    <path d="M152.89 81.7728C152.89 81.7728 156.903 77.0101 161.172 76.2554C165.442 75.5006 164.375 77.9566 161.839 79.789C159.303 81.6213 153.582 85.3105 153.582 85.3105" fill="#F6A180"/>
    <path d="M155.828 80.3267C155.828 80.3267 163.794 77.0872 167.208 78.5524C167.208 78.5524 170.184 81.4725 167.268 85.3085C164.47 88.9875 157.168 90.3537 157.168 90.3537L155.828 80.3267Z" fill="#F6A180"/>
    <path d="M117.787 105.472C116.541 105.472 115.317 105.148 114.235 104.53C113.153 103.913 112.25 103.024 111.617 101.951L86.9414 60.1903L99.2797 52.8992L120.987 89.6371L155.293 77.9027L159.933 91.4619L120.107 105.085C119.361 105.341 118.577 105.472 117.787 105.472Z" fill="#E0ECFF"/>
    <path d="M102.492 126.123C99.6325 132.695 43.448 135.425 42.6973 123.864C42.2196 116.508 48.7027 110.086 48.7027 95.7483C48.7027 81.4104 35.5113 63.1008 46.2596 52.3526C49.3783 49.2339 54.7627 47.2207 61.3276 47.2139C61.819 51.0423 85.0626 51.0559 85.24 47.3026C86.1272 47.3162 86.8164 47.3299 87.2463 47.3504C109.889 48.3262 99.9395 74.0948 99.7212 93.0254C99.455 115.176 105.44 119.353 102.492 126.123Z" fill="#E0ECFF"/>
    <path d="M137.941 112.101C136.2 112.101 134.525 111.436 133.258 110.241L100.143 78.9939C99.4866 78.3802 98.9575 77.6427 98.5866 76.8239C98.2157 76.0051 98.0102 75.121 97.9819 74.2225C97.9536 73.324 98.1031 72.4288 98.4218 71.5883C98.7406 70.7478 99.2222 69.9785 99.8391 69.3246C100.456 68.6708 101.196 68.1453 102.017 67.7783C102.837 67.4112 103.722 67.21 104.621 67.186C105.519 67.162 106.414 67.3158 107.253 67.6386C108.092 67.9613 108.859 68.4466 109.51 69.0666L137.564 95.5381L195.901 31.2532C196.5 30.5772 197.227 30.0268 198.04 29.6339C198.853 29.241 199.736 29.0133 200.638 28.9642C201.54 28.915 202.442 29.0453 203.293 29.3475C204.144 29.6497 204.927 30.1177 205.595 30.7246C206.264 31.3314 206.806 32.065 207.189 32.8827C207.572 33.7004 207.789 34.5861 207.828 35.4883C207.866 36.3905 207.725 37.2914 207.413 38.1387C207.1 38.986 206.623 39.7629 206.008 40.4244L142.995 109.863C142.386 110.535 141.648 111.079 140.826 111.462C140.003 111.846 139.113 112.061 138.206 112.097C138.118 112.099 138.029 112.101 137.941 112.101Z" fill="#0CBC8B"/>
    <path d="M85.2405 47.3026C85.063 51.056 83.0226 56.5768 76.7237 56.9931C68.3299 57.5459 61.8195 51.0423 61.3281 47.2139H61.3486C69.6128 47.2132 80.4225 47.2269 85.2405 47.3026Z" fill="#F6A180"/>
    <path d="M104.323 99.8436C104.323 99.8436 102.744 90.8553 109.241 90.1121C113.34 89.6433 123.646 83.945 125.602 88.7077C127.297 92.8398 117.455 97.7587 113.932 98.6712C110.774 99.4826 104.323 99.8436 104.323 99.8436Z" fill="#F6A180"/>
    <path d="M107.027 90.828C107.027 90.828 115.4 86.2366 117.691 86.3437C119.719 86.4386 116.269 90.3619 116.269 90.3619L107.027 90.828Z" fill="#F6A180"/>
    <path d="M171.279 79.991C171.458 79.7329 171.543 79.4218 171.521 79.1088C171.5 78.7958 171.372 78.4995 171.16 78.2685C170.125 77.15 168.205 75.3764 166.941 76.0322C165.139 76.9664 161.534 80.4379 162.535 82.2423C163.536 84.0466 165.606 86.027 166.943 85.4265C167.955 84.9727 170.123 81.6725 171.279 79.991Z" fill="#F6A180"/>
    <path d="M56.374 57.3362L74.4479 98.1704L74.5377 98.3733L74.7499 98.3082L109.482 87.6483L113.703 101.394L72.6774 113.983L72.6771 113.983C71.9935 114.193 71.2822 114.3 70.5669 114.301L56.374 57.3362ZM56.374 57.3362L43.2535 63.586L64.003 110.041L64.003 110.042C64.5689 111.31 65.4899 112.387 66.6547 113.142C67.8195 113.898 69.1783 114.3 70.5668 114.301L56.374 57.3362Z" fill="#E0ECFF" stroke="#0075FF" strokeWidth="0.5"/>
    <path d="M42.5 64L56.5728 57" stroke="#E0ECFF"/>
</svg>
