<svg width="463" height="381" viewBox="0 0 463 381" fill="none" xmlns="http://www.w3.org/2000/svg">
    <path d="M274.175 336.03C274.886 337.13 275.961 337.945 277.213 338.331C277.764 338.511 278.337 338.615 278.916 338.639C279.047 338.644 279.178 338.642 279.309 338.633C279.426 338.637 279.544 338.631 279.661 338.617C279.778 338.601 279.887 338.581 279.969 338.573C280.055 338.558 280.139 338.536 280.221 338.509C280.265 338.499 280.309 338.487 280.352 338.471C280.399 338.454 280.369 338.471 280.379 338.465C280.408 338.451 280.306 338.481 280.249 338.477H280.2H280.389L280.814 338.472C281.302 338.452 281.79 338.528 282.249 338.697C282.394 338.753 282.514 338.861 282.584 339.001C282.654 339.14 282.669 339.301 282.627 339.451L282.011 336.926C282.035 336.78 282.017 336.63 281.958 336.494C281.899 336.358 281.802 336.242 281.678 336.161C281.345 335.975 280.97 335.88 280.588 335.883H280.274H280.128L280.096 335.889C280.044 335.892 279.993 335.899 279.942 335.91C279.865 335.931 279.806 335.929 279.711 335.959L279.435 336.037C278.863 336.177 278.259 336.123 277.721 335.883C277.182 335.643 276.739 335.231 276.46 334.711C276.306 334.401 276.224 334.06 276.219 333.714C276.215 333.368 276.288 333.026 276.434 332.712C276.58 332.398 276.795 332.122 277.063 331.902C277.33 331.683 277.644 331.526 277.98 331.445C278.356 331.325 278.74 331.231 279.128 331.161C279.356 331.119 279.586 331.091 279.817 331.078L279.998 331.066C280.02 331.065 280.042 331.065 280.065 331.066L280.175 331.071C280.323 331.082 280.464 331.141 280.575 331.24C280.626 331.293 280.666 331.357 280.692 331.426C280.718 331.495 280.729 331.569 280.725 331.643L279.954 328.466L279.669 328.483C279.342 328.501 279.016 328.539 278.694 328.597C278.427 328.648 278.111 328.705 277.888 328.769L277.193 328.966C276.945 329.046 276.702 329.141 276.465 329.25C276.248 329.343 276.039 329.455 275.84 329.583C275.65 329.701 275.468 329.825 275.296 329.955C275.123 330.084 274.987 330.221 274.848 330.36C274.576 330.622 274.34 330.919 274.145 331.243C273.959 331.541 273.807 331.859 273.692 332.191C273.481 332.827 273.414 333.501 273.498 334.166C273.581 334.83 273.813 335.467 274.175 336.03Z" fill="#292A2E"/>
    <path d="M262.975 337.976C262.059 338.709 261.153 339.446 260.255 340.189L261.914 342.191C262.8 341.457 263.694 340.729 264.595 340.008C264.843 339.804 265.13 339.652 265.438 339.56C265.746 339.468 266.069 339.438 266.388 339.473C266.708 339.508 267.017 339.605 267.298 339.761C267.579 339.917 267.827 340.127 268.025 340.379C268.41 340.889 268.581 341.529 268.501 342.163C268.421 342.796 268.097 343.374 267.598 343.772C266.724 344.472 265.854 345.18 264.987 345.898L266.645 347.903C267.499 347.195 268.357 346.497 269.219 345.809C270.241 344.979 270.906 343.788 271.077 342.483C271.249 341.177 270.913 339.856 270.139 338.79C269.732 338.253 269.22 337.804 268.635 337.47C268.049 337.136 267.401 336.925 266.731 336.849C266.062 336.773 265.383 336.833 264.737 337.027C264.092 337.221 263.492 337.544 262.975 337.976Z" fill="#292A2E"/>
    <path d="M267.819 342.191C269.475 340.895 271.151 339.626 272.868 338.443C274.53 337.26 276.293 336.224 278.137 335.348C278.434 335.204 278.67 334.958 278.803 334.654C278.935 334.351 278.954 334.011 278.857 333.694C278.801 333.523 278.709 333.365 278.586 333.233C278.463 333.101 278.314 332.996 278.147 332.927C277.98 332.858 277.801 332.825 277.62 332.832C277.44 332.838 277.263 332.884 277.102 332.965C275.104 333.905 273.194 335.022 271.395 336.302C269.614 337.529 267.902 338.826 266.215 340.146C266.077 340.251 265.962 340.381 265.876 340.53C265.79 340.679 265.734 340.844 265.712 341.015C265.69 341.186 265.702 341.36 265.748 341.526C265.794 341.692 265.872 341.847 265.979 341.983C266.085 342.119 266.217 342.232 266.368 342.316C266.518 342.4 266.684 342.453 266.855 342.472C267.027 342.491 267.2 342.477 267.365 342.428C267.531 342.38 267.685 342.299 267.819 342.191Z" fill="#292A2E"/>
    <path d="M256.994 349.586C257.882 350.573 259.121 351.175 260.446 351.262C261.771 351.35 263.079 350.917 264.089 350.055C264.937 349.324 265.79 348.618 266.643 347.904L264.984 345.899C264.122 346.621 263.255 347.336 262.402 348.074C261.915 348.492 261.284 348.702 260.644 348.658C260.004 348.615 259.407 348.322 258.981 347.843C258.773 347.599 258.615 347.317 258.517 347.012C258.42 346.707 258.383 346.386 258.411 346.066C258.438 345.747 258.528 345.437 258.677 345.153C258.825 344.869 259.028 344.617 259.274 344.413C260.142 343.662 261.03 342.93 261.911 342.191L260.253 340.19C259.362 340.937 258.462 341.679 257.588 342.435C257.073 342.862 256.649 343.386 256.34 343.979C256.031 344.571 255.843 345.22 255.787 345.886C255.732 346.552 255.81 347.222 256.018 347.857C256.225 348.493 256.557 349.081 256.994 349.586Z" fill="#292A2E"/>
    <path d="M246.318 352.408C245.525 353.102 244.692 353.699 243.883 354.353L245.438 356.435C246.287 355.752 247.167 355.117 247.993 354.395C248.48 353.987 249.105 353.783 249.739 353.826C250.373 353.869 250.965 354.156 251.391 354.627C251.604 354.871 251.765 355.155 251.865 355.462C251.965 355.77 252.003 356.094 251.976 356.416C251.948 356.738 251.856 357.052 251.706 357.338C251.555 357.624 251.348 357.877 251.097 358.081C250.209 358.852 249.247 359.558 248.321 360.298L249.876 362.38C250.841 361.609 251.852 360.87 252.773 360.066C253.304 359.644 253.742 359.117 254.061 358.518C254.38 357.919 254.572 357.261 254.627 356.585C254.681 355.909 254.596 355.229 254.377 354.587C254.158 353.945 253.81 353.354 253.354 352.852C252.455 351.901 251.23 351.326 249.924 351.244C248.618 351.161 247.329 351.578 246.318 352.408Z" fill="#292A2E"/>
    <path d="M251.281 356.447L252.503 355.379L253.68 354.311L256.036 352.183C257.611 350.77 259.199 349.373 260.8 347.992C260.935 347.882 261.046 347.746 261.127 347.593C261.208 347.44 261.257 347.271 261.272 347.098C261.288 346.926 261.268 346.751 261.215 346.586C261.161 346.421 261.076 346.268 260.962 346.137C260.849 346.005 260.711 345.898 260.555 345.821C260.4 345.743 260.23 345.698 260.057 345.688C259.884 345.677 259.71 345.701 259.546 345.758C259.383 345.816 259.232 345.906 259.103 346.022C257.489 347.416 255.888 348.824 254.302 350.247L251.931 352.389L250.75 353.462L249.572 354.489C249.312 354.718 249.153 355.04 249.126 355.386C249.1 355.731 249.209 356.073 249.431 356.34C249.544 356.471 249.682 356.578 249.837 356.654C249.992 356.731 250.161 356.775 250.333 356.785C250.506 356.795 250.679 356.77 250.841 356.712C251.004 356.654 251.154 356.564 251.281 356.447Z" fill="#292A2E"/>
    <path d="M239.612 362.758C239.88 363.37 240.285 363.913 240.796 364.344C241.306 364.776 241.909 365.084 242.558 365.246C243.244 365.431 243.963 365.463 244.663 365.34C245.409 365.2 246.124 364.926 246.772 364.531C247.312 364.194 247.816 363.822 248.339 363.468C248.862 363.114 249.387 362.76 249.875 362.379L248.32 360.297C247.853 360.662 247.345 360.986 246.859 361.332C246.373 361.677 245.886 362.026 245.373 362.341C245.103 362.524 244.798 362.649 244.477 362.709C244.156 362.769 243.826 362.763 243.508 362.69C243.189 362.618 242.889 362.481 242.626 362.289C242.362 362.096 242.141 361.851 241.975 361.57C241.668 361.021 241.58 360.376 241.729 359.765C241.879 359.154 242.254 358.623 242.781 358.278C243.236 357.998 243.67 357.67 244.116 357.369C244.555 357.055 245.01 356.769 245.439 356.433L243.884 354.351C243.477 354.671 243.05 354.936 242.636 355.232C242.217 355.515 241.806 355.827 241.382 356.088C240.865 356.398 240.425 356.819 240.094 357.322C239.759 357.818 239.505 358.365 239.343 358.942C238.995 360.207 239.09 361.554 239.612 362.758Z" fill="#292A2E"/>
    <path d="M229.965 359.987C229.539 359.987 229.117 359.94 228.688 359.927C228.259 359.915 227.84 359.808 227.413 359.761L226.973 362.323C227.471 362.381 227.964 362.494 228.464 362.517C228.964 362.54 229.463 362.59 229.962 362.586C230.256 362.582 230.548 362.637 230.82 362.748C231.092 362.859 231.339 363.023 231.546 363.231C232.02 363.642 232.325 364.213 232.403 364.835C232.443 365.156 232.412 365.482 232.314 365.791C232.216 366.1 232.052 366.383 231.834 366.623C231.333 367.117 230.66 367.396 229.957 367.403C229.321 367.403 228.684 367.346 228.048 367.316C227.412 367.286 226.788 367.152 226.157 367.07L225.718 369.632C226.419 369.726 227.113 369.863 227.824 369.905C228.534 369.948 229.244 370.006 229.954 370.003C230.789 369.996 231.615 369.82 232.382 369.487C233.055 369.173 233.658 368.727 234.155 368.176C234.587 367.653 234.888 367.035 235.036 366.372C235.183 365.71 235.172 365.023 235.004 364.366C234.676 363.115 233.95 362.005 232.935 361.204C232.512 360.822 232.025 360.518 231.495 360.306C231.015 360.09 230.493 359.981 229.965 359.987Z" fill="#292A2E"/>
    <path d="M231.202 366.25C233.446 366.105 235.658 365.649 237.776 364.895C239.855 364.142 241.853 363.181 243.74 362.029C243.892 361.945 244.025 361.831 244.132 361.694C244.238 361.556 244.316 361.399 244.359 361.231C244.403 361.063 244.412 360.887 244.386 360.716C244.359 360.544 244.298 360.379 244.206 360.232C244.019 359.943 243.728 359.737 243.393 359.656C243.059 359.575 242.706 359.626 242.407 359.798C240.669 360.861 238.828 361.748 236.912 362.444C235.024 363.116 233.051 363.524 231.051 363.655C230.712 363.682 230.396 363.835 230.165 364.084C229.934 364.333 229.805 364.66 229.804 365C229.807 365.176 229.846 365.349 229.919 365.51C229.992 365.67 230.098 365.813 230.229 365.931C230.361 366.048 230.515 366.137 230.682 366.192C230.85 366.247 231.027 366.267 231.202 366.25Z" fill="#292A2E"/>
    <path d="M218.612 361.792C218.284 362.378 218.093 363.03 218.053 363.7C218.012 364.37 218.125 365.04 218.38 365.661C218.664 366.321 219.082 366.916 219.609 367.405C219.901 367.662 220.216 367.892 220.549 368.091C220.898 368.311 221.275 368.483 221.669 368.603C222.99 369.049 224.343 369.393 225.717 369.632L226.157 367.07C224.914 366.854 223.69 366.542 222.496 366.139C222.168 366.035 221.865 365.864 221.607 365.637C221.348 365.411 221.139 365.133 220.992 364.822C220.855 364.533 220.783 364.218 220.781 363.898C220.779 363.578 220.846 363.262 220.979 362.971C221.245 362.395 221.711 361.935 222.29 361.678C222.837 361.43 223.457 361.393 224.029 361.575C224.99 361.9 225.974 362.151 226.973 362.326L227.412 359.765C226.545 359.612 225.69 359.394 224.856 359.111C224.59 359.034 224.32 358.973 224.047 358.929C223.77 358.891 223.489 358.886 223.21 358.912C222.62 358.946 222.039 359.079 221.494 359.306C220.274 359.776 219.255 360.655 218.612 361.792Z" fill="#292A2E"/>
    <path d="M213.312 352.216L211.933 351.192L210.513 350.152L208.991 352.259C209.936 352.938 210.851 353.627 211.762 354.302C212.02 354.489 212.239 354.725 212.405 354.998C212.572 355.27 212.682 355.572 212.731 355.887C212.779 356.203 212.765 356.524 212.688 356.834C212.611 357.143 212.474 357.435 212.284 357.691C212.093 357.947 211.854 358.162 211.58 358.325C211.306 358.488 211.002 358.595 210.686 358.639C210.37 358.684 210.049 358.665 209.74 358.584C209.432 358.503 209.142 358.362 208.889 358.168C207.971 357.489 207.069 356.81 206.168 356.163L204.645 358.269L205.977 359.246L207.338 360.256C208.439 361.077 209.819 361.432 211.18 361.246C211.838 361.157 212.47 360.93 213.035 360.581C213.599 360.231 214.084 359.767 214.457 359.217C215.198 358.121 215.494 356.784 215.284 355.478C215.083 354.173 214.374 353.001 213.312 352.216Z" fill="#292A2E"/>
    <path d="M210.493 357.977C213.916 360.508 217.523 363.047 221.692 364.667C221.854 364.737 222.029 364.772 222.206 364.771C222.382 364.77 222.556 364.732 222.717 364.661C222.878 364.589 223.023 364.484 223.141 364.353C223.26 364.223 223.35 364.069 223.406 363.902C223.508 363.579 223.485 363.23 223.342 362.923C223.2 362.616 222.947 362.374 222.635 362.244C218.86 360.783 215.425 358.397 212.04 355.887C211.903 355.779 211.746 355.699 211.578 355.653C211.41 355.607 211.234 355.595 211.061 355.618C210.889 355.641 210.722 355.699 210.572 355.788C210.422 355.876 210.292 355.994 210.188 356.135C210.084 356.275 210.01 356.434 209.97 356.604C209.929 356.774 209.923 356.95 209.952 357.121C209.981 357.293 210.044 357.458 210.138 357.605C210.231 357.752 210.354 357.878 210.497 357.977H210.493Z" fill="#292A2E"/>
    <path d="M200.302 349.841C199.83 351.049 199.752 352.376 200.08 353.631C200.219 354.202 200.458 354.744 200.785 355.233C201.119 355.729 201.549 356.152 202.051 356.476C202.475 356.749 202.9 357.03 203.336 357.34C203.767 357.634 204.204 357.943 204.647 358.265L206.171 356.159C205.72 355.828 205.269 355.508 204.819 355.2C204.369 354.88 203.917 354.583 203.465 354.292C202.949 353.952 202.583 353.428 202.442 352.826C202.291 352.209 202.375 351.557 202.678 350.999C202.831 350.718 203.042 350.473 203.298 350.282C203.554 350.09 203.848 349.955 204.16 349.887C204.488 349.815 204.827 349.81 205.158 349.872C205.488 349.933 205.802 350.06 206.083 350.245C206.586 350.571 207.085 350.899 207.561 351.238C208.037 351.578 208.527 351.912 208.993 352.254L210.516 350.148C210.041 349.799 209.55 349.451 209.041 349.102C208.549 348.752 208.026 348.408 207.494 348.063C206.854 347.647 206.138 347.364 205.386 347.23C204.675 347.105 203.945 347.126 203.241 347.292C202.583 347.45 201.972 347.764 201.46 348.207C200.948 348.651 200.551 349.211 200.302 349.841Z" fill="#292A2E"/>
    <path d="M188.854 344.412C187.242 345.001 185.745 345.866 184.429 346.967L186.081 348.972C187.166 348.06 188.402 347.345 189.732 346.858C190.115 346.713 190.526 346.658 190.933 346.697C191.294 346.719 191.645 346.829 191.953 347.018C192.233 347.183 192.468 347.414 192.639 347.69C192.81 347.966 192.911 348.28 192.934 348.604C192.974 349.227 192.819 349.847 192.489 350.378C192.347 350.607 192.177 350.818 191.984 351.007C191.8 351.171 191.589 351.301 191.36 351.393C190.551 351.692 189.801 352.131 189.144 352.691L190.797 354.696C191.222 354.326 191.711 354.036 192.239 353.838C192.312 353.815 192.381 353.78 192.444 353.736C192.517 353.701 192.587 353.659 192.654 353.611C192.724 353.563 192.785 353.497 192.858 353.434C192.938 353.374 193.014 353.309 193.084 353.237C193.161 353.16 193.232 353.079 193.308 352.99C193.383 352.901 193.475 352.824 193.557 352.731C193.726 352.549 193.881 352.314 194.059 352.102C194.432 351.622 194.751 351.103 195.013 350.554C195.307 349.959 195.497 349.318 195.573 348.658C195.666 347.977 195.58 347.284 195.323 346.646C195.066 346.009 194.647 345.45 194.107 345.024C193.803 344.783 193.465 344.587 193.105 344.441C192.912 344.358 192.715 344.284 192.515 344.221C192.298 344.167 192.078 344.125 191.857 344.093C191.626 344.06 191.394 344.037 191.155 344.024C190.906 344.022 190.656 344.034 190.409 344.061C190.149 344.086 189.892 344.124 189.637 344.178C189.374 344.244 189.114 344.322 188.854 344.412Z" fill="#292A2E"/>
    <path d="M191.949 350.073C193.853 349.739 195.808 349.832 197.671 350.346C199.594 350.873 201.426 351.687 203.107 352.76C203.401 352.935 203.75 352.99 204.084 352.915C204.417 352.839 204.709 352.639 204.899 352.354C204.994 352.207 205.057 352.042 205.086 351.87C205.115 351.697 205.108 351.521 205.067 351.351C205.025 351.181 204.949 351.021 204.844 350.882C204.739 350.742 204.607 350.625 204.455 350.538C202.547 349.326 200.467 348.41 198.285 347.821C197.179 347.546 196.051 347.369 194.914 347.294C193.734 347.212 192.548 347.293 191.39 347.535C191.202 347.571 191.023 347.646 190.866 347.757C190.709 347.868 190.577 348.011 190.48 348.177C190.393 348.326 190.341 348.494 190.327 348.667C190.314 348.84 190.34 349.013 190.403 349.175C190.528 349.492 190.759 349.756 191.057 349.923C191.327 350.077 191.643 350.131 191.949 350.073Z" fill="#292A2E"/>
    <path d="M181.567 356.805C181.984 357.34 182.525 357.764 183.144 358.041C183.762 358.319 184.439 358.441 185.115 358.397C186.547 358.302 187.889 357.664 188.867 356.613C189.465 355.931 190.11 355.291 190.795 354.697L189.142 352.692C188.364 353.36 187.632 354.082 186.953 354.851C186.739 355.091 186.48 355.286 186.19 355.424C185.9 355.563 185.585 355.642 185.265 355.657C184.944 355.672 184.623 355.622 184.321 355.512C184.02 355.401 183.743 355.231 183.508 355.012C183.05 354.567 182.782 353.96 182.764 353.321C182.745 352.682 182.976 352.061 183.408 351.589C184.236 350.654 185.129 349.778 186.08 348.967L184.427 346.962C183.384 347.847 182.404 348.804 181.496 349.827C181.067 350.28 180.735 350.816 180.523 351.403C180.31 351.99 180.222 352.615 180.262 353.238C180.293 353.857 180.412 354.468 180.616 355.054C180.83 355.688 181.151 356.281 181.567 356.805Z" fill="#292A2E"/>
    <path d="M171.974 355.267C171.531 355.308 171.06 355.305 170.604 355.332L169.177 355.309L169.064 357.905L170.635 357.93C171.149 357.903 171.672 357.904 172.178 357.857C172.769 357.817 173.354 358 173.817 358.371C174.318 358.76 174.665 359.314 174.796 359.934C174.861 360.248 174.855 360.572 174.779 360.883C174.703 361.194 174.559 361.484 174.357 361.733C174.136 362.002 173.862 362.223 173.553 362.382C173.243 362.541 172.905 362.635 172.557 362.658C171.932 362.713 171.315 362.717 170.693 362.745L168.853 362.717L168.741 365.313L170.725 365.344C171.405 365.314 172.073 365.309 172.762 365.249C173.555 365.198 174.327 364.979 175.028 364.607C175.729 364.234 176.343 363.717 176.829 363.09C177.236 362.541 177.496 361.897 177.585 361.22C177.674 360.542 177.589 359.853 177.338 359.218C176.857 358.028 176.047 356.999 175.003 356.252C174.15 355.559 173.071 355.208 171.974 355.267Z" fill="#292A2E"/>
    <path d="M173.703 361.431C175.985 361.155 178.192 360.435 180.198 359.312C182.132 358.145 183.869 356.678 185.343 354.967C185.578 354.714 185.702 354.378 185.688 354.034C185.675 353.689 185.526 353.364 185.273 353.13C185.02 352.896 184.684 352.772 184.34 352.785C183.995 352.798 183.67 352.948 183.436 353.201C182.14 354.718 180.61 356.02 178.904 357.057C178.493 357.31 178.048 357.502 177.613 357.715C177.16 357.887 176.718 358.086 176.245 358.217C175.305 358.51 174.341 358.723 173.364 358.854C173.028 358.898 172.721 359.07 172.508 359.335C172.295 359.599 172.191 359.934 172.218 360.273C172.235 360.448 172.288 360.618 172.372 360.772C172.457 360.927 172.573 361.062 172.711 361.171C172.85 361.279 173.01 361.358 173.18 361.403C173.351 361.448 173.528 361.457 173.703 361.431Z" fill="#292A2E"/>
    <path d="M84.6033 372.407L100.686 370.495C99.9614 364.407 99.1431 357.095 99.0876 355.896C99.0876 355.973 99.0876 356.037 99.0876 356.085H82.892C82.8989 356.571 82.8989 358.049 84.6033 372.407Z" fill="#F6A180"/>
    <path d="M149.138 374.343L165.334 374.291C165.334 374.291 165.28 357.567 165.28 356.085H149.084C149.084 357.57 149.138 374.343 149.138 374.343Z" fill="#F6A180"/>
    <path d="M107.164 367.294L78.6332 366.807C79.9728 332.849 80.0553 297.229 80.4733 263.189C86.0415 226.499 88.9745 186.209 95.8476 149.782L96.0535 149.842L96.6558 145.732L155.328 142.108C155.328 142.108 166.025 313.05 169.51 366.37L141.076 368.773C135.952 316.496 128.024 240.322 123.148 185.403C117.549 212.141 113.739 239.826 108.87 266.335C107.896 299.52 107.073 334.209 107.164 367.294Z" fill="#292A2E"/>
    <path d="M129.451 380.607C129.016 380.605 128.585 380.514 128.187 380.338C127.788 380.162 127.43 379.906 127.135 379.585C126.84 379.265 126.614 378.887 126.472 378.475C126.33 378.064 126.274 377.627 126.308 377.193C126.355 376.591 126.572 376.015 126.936 375.533C127.299 375.051 127.792 374.683 128.358 374.471L147.208 368.157C147.574 368.037 147.961 367.996 148.343 368.039C148.725 368.081 149.094 368.206 149.423 368.404C152.015 370.202 155.115 371.121 158.268 371.026C160.723 370.852 163.081 369.991 165.071 368.542C165.245 368.398 165.458 368.307 165.682 368.28C165.907 368.252 166.134 368.289 166.339 368.386C166.543 368.483 166.716 368.636 166.836 368.828C166.957 369.019 167.02 369.241 167.02 369.467V378.686C167.02 378.958 166.966 379.227 166.862 379.478C166.757 379.73 166.604 379.958 166.412 380.15C166.219 380.341 165.99 380.493 165.739 380.597C165.487 380.7 165.218 380.753 164.946 380.751L129.451 380.607Z" fill="#9AAFC2"/>
    <path d="M64.8738 380.607C64.4382 380.605 64.0077 380.514 63.6092 380.338C63.2107 380.162 62.8527 379.906 62.5577 379.585C62.2626 379.265 62.0368 378.887 61.8943 378.476C61.7518 378.064 61.6957 377.627 61.7295 377.193C61.7766 376.591 61.9946 376.015 62.3579 375.533C62.7212 375.051 63.2146 374.683 63.7802 374.471L82.6303 368.157C82.9956 368.037 83.3828 367.996 83.7652 368.039C84.1476 368.081 84.5163 368.206 84.846 368.404C87.4377 370.202 90.5377 371.121 93.6904 371.026C96.1458 370.852 98.5027 369.991 100.493 368.542C100.667 368.398 100.879 368.307 101.104 368.28C101.328 368.252 101.556 368.289 101.761 368.386C101.965 368.483 102.137 368.636 102.258 368.828C102.379 369.019 102.442 369.241 102.441 369.467V378.686C102.441 378.958 102.388 379.227 102.283 379.479C102.179 379.73 102.026 379.958 101.833 380.15C101.641 380.341 101.412 380.493 101.161 380.597C100.909 380.7 100.64 380.753 100.368 380.751L64.8738 380.607Z" fill="#9AAFC2"/>
    <path d="M137.193 353.032H171.193V367.051H137.193V353.032Z" fill="#292A2E"/>
    <path d="M14.3084 119.595C14.3084 119.595 10.5364 120.839 4.60805 118.045C2.68618 117.14 4.34199 110.802 5.03146 110.802C6.34087 110.898 7.6556 110.896 8.96466 110.795C7.58572 109.746 5.78341 108.198 6.23611 107.574C7.42842 105.933 14.2136 109.733 16.3691 110.534L14.3084 119.595Z" fill="#F6A180"/>
    <path d="M93.4395 81.9512L68.2252 130.165L14.2662 115.933" stroke="#292A2E" strokeWidth="16.8157" strokeLinejoin="round"/>
    <path d="M91.5567 160.601C95.5671 167.636 159.027 163.867 158.463 150.787C158.105 142.463 150.04 136.037 148.295 119.928C146.549 103.819 159.143 81.6439 145.76 70.8754C141.876 67.7512 135.58 66.1448 128.205 66.9353C128.119 71.2965 121.596 79.3958 112.097 79.7961C104.97 80.0953 102.005 74.1408 101.35 69.9453C100.354 70.0687 99.582 70.1674 99.1016 70.243C73.7794 74.0945 88.094 101.836 90.6428 123.078C93.6367 147.934 87.4207 153.355 91.5567 160.601Z" fill="#0075FF"/>
    <path d="M101.348 69.9456C102.003 74.141 104.968 80.0956 112.095 79.7964C121.594 79.3961 128.117 71.2968 128.203 66.9355H128.18C118.895 67.9443 106.752 69.2747 101.348 69.9456Z" fill="#F6A180"/>
    <path d="M31.4613 59.5856L133.616 87.1643C138.327 88.4362 141.115 93.2865 139.844 97.9977L122.609 161.835C121.337 166.546 116.487 169.334 111.776 168.063L9.62117 140.484C4.90994 139.212 2.12177 134.362 3.39367 129.65L20.6279 65.813C21.8998 61.1018 26.7501 58.3137 31.4613 59.5856Z" fill="#0CBC8B"/>
    <path d="M23.1997 71.6245L127.307 90.5439C132.108 91.4164 135.293 96.016 134.42 100.817L122.597 165.874C121.725 170.676 117.125 173.861 112.324 172.988L8.21707 154.069C3.4158 153.196 0.230911 148.597 1.10345 143.795L12.9263 78.7381C13.7989 73.9368 18.3984 70.752 23.1997 71.6245Z" fill="#9EBCEA"/>
    <path opacity="0.26" d="M23.1997 71.6245L127.307 90.5439C132.108 91.4164 135.293 96.016 134.42 100.817L122.597 165.874C121.725 170.676 117.125 173.861 112.324 172.988L8.21707 154.069C3.4158 153.196 0.230911 148.597 1.10345 143.795L12.9263 78.7381C13.7989 73.9368 18.3984 70.752 23.1997 71.6245Z" fill="#0075FF"/>
    <path opacity="0.34" d="M9.8402 95.7226L131.334 117.802L128.603 132.829L7.10932 110.75L9.8402 95.7226Z" fill="white"/>
    <path d="M30.6124 149.471C25.1409 149.471 20.7054 145.035 20.7054 139.564C20.7054 134.092 25.1409 129.656 30.6124 129.656C36.084 129.656 40.5195 134.092 40.5195 139.564C40.5195 145.035 36.084 149.471 30.6124 149.471Z" fill="#F3F5FD"/>
    <path d="M20.8644 147.699C15.3929 147.699 10.9574 143.263 10.9574 137.792C10.9574 132.32 15.3929 127.885 20.8644 127.885C26.336 127.885 30.7715 132.32 30.7715 137.792C30.7715 143.263 26.336 147.699 20.8644 147.699Z" fill="#0CBC8B"/>
    <path d="M4.96188 108.745C4.96188 108.745 9.83984 108.187 9.83984 112.714C9.83984 117.24 7.72746 118.045 5.71535 118.045C3.70324 118.045 2.09064 117.458 2.89887 114.332C3.70711 111.205 3.40324 109.303 4.96188 108.745Z" fill="#F6A180"/>
    <path d="M124.053 141.407C120.417 143.578 116.456 145.153 112.321 146.07C108.25 146.902 103.732 146.915 99.8396 144.731C99.5844 144.588 99.3784 144.37 99.2485 144.108C99.1186 143.846 99.0709 143.55 99.1115 143.26C99.1522 142.97 99.2793 142.699 99.4763 142.483C99.6733 142.266 99.9311 142.114 100.216 142.046C104.109 141.18 107.921 139.986 111.611 138.477C112.83 137.974 113.973 137.305 115.009 136.49C113.29 136.278 110.953 135.847 111.031 135.079C111.235 133.062 119.013 132.934 121.276 132.534L124.053 141.407Z" fill="#F6A180"/>
    <path d="M121.992 145.658L168.877 127.961C170.02 127.53 171.054 126.856 171.91 125.984C172.765 125.113 173.42 124.066 173.83 122.915C174.239 121.765 174.393 120.539 174.281 119.323C174.169 118.107 173.793 116.931 173.18 115.875L150.127 76.157L135.58 84.5941L153.652 115.733L116.052 129.923L121.992 145.658Z" fill="#0075FF"/>
    <path d="M119.479 57.4402C119.446 57.3052 119.422 57.1687 119.396 57.0322C119.145 55.6517 118.924 54.1394 118.761 52.4759L116.987 52.4697L106.234 52.4412C106.931 55.0978 107.381 57.8129 107.58 60.5521C107.606 60.8606 107.624 61.1791 107.635 61.4984C107.638 61.5271 107.638 61.556 107.635 61.5847C107.649 62.0058 107.656 62.4279 107.655 62.8511C107.655 63.1249 107.655 63.4002 107.641 63.677C107.641 64.0295 107.62 64.3781 107.59 64.729C107.56 65.0799 107.528 65.4231 107.481 65.7678C107.434 66.1126 107.394 66.4504 107.327 66.7835C107.217 67.4376 107.057 68.0822 106.848 68.7116V68.7193C106.478 69.9469 105.852 71.082 105.01 72.0494L124.068 68.5712C122.507 66.7342 120.63 63.4002 119.479 57.4402Z" fill="#F6A180"/>
    <path opacity="0.15" d="M106.844 68.7339L115.508 59.1924L107.587 60.5544C107.851 63.3033 107.599 66.0774 106.844 68.7339Z" fill="#292A2E"/>
    <path d="M124.511 45.0269C124.556 50.0267 122.749 55.099 118.759 57.4435C114.023 60.2284 110.287 61.0397 104.435 62.1078C96.4493 63.5647 95.1938 55.1892 93.4385 46.8377C91.6755 38.453 90.696 29.2925 93.3166 25.7834C98.547 18.7738 117.713 19.1109 121.751 28.5028C123.839 33.3584 124.468 40.2677 124.511 45.0269Z" fill="#F6A180"/>
    <path d="M86.3254 32.091C86.3254 32.091 82.9213 31.9576 83.222 28.5326C83.4203 26.2621 86.2792 26.2367 86.2792 26.2367C86.2792 26.2367 83.5683 26.2367 83.1503 23.9446C82.8866 22.5009 83.5491 19.8571 87.1499 20.6415C91.3746 21.5669 95.8122 20.5374 99.1122 19.3435C100.961 18.5704 102.866 17.9378 104.81 17.4509L104.818 17.4471C107.073 16.9959 109.382 16.8867 111.668 17.1232C118.085 17.8335 128.29 21.6094 128.589 34.3345C128.923 48.5372 123.409 54.9985 120.868 57.2119C120.718 57.3443 120.539 57.4408 120.347 57.4941C120.154 57.5475 119.951 57.5563 119.755 57.5199C119.558 57.4835 119.372 57.4028 119.211 57.284C119.05 57.1652 118.918 57.0113 118.825 56.834C117.545 54.3946 114.963 48.1393 112.905 34.646C94.0338 37.1409 88.6021 37.845 88.6021 37.845C88.6021 37.845 84.2285 38.8129 83.6416 35.5969C83.0547 32.381 86.3254 32.091 86.3254 32.091Z" fill="#292A2E"/>
    <path d="M104.646 44.7753C104.029 44.7753 103.529 44.275 103.529 43.6578C103.529 43.0406 104.029 42.5403 104.646 42.5403C105.263 42.5403 105.764 43.0406 105.764 43.6578C105.764 44.275 105.263 44.7753 104.646 44.7753Z" fill="#292A2E"/>
    <path d="M95.8454 45.6466C95.2282 45.6466 94.7279 45.1463 94.7279 44.5291C94.7279 43.9119 95.2282 43.4116 95.8454 43.4116C96.4626 43.4116 96.9629 43.9119 96.9629 44.5291C96.9629 45.1463 96.4626 45.6466 95.8454 45.6466Z" fill="#292A2E"/>
    <path d="M93.5127 42.5342H93.5196L96.4248 41.9666C96.5593 41.9383 96.6773 41.8584 96.7535 41.7441C96.8298 41.6298 96.8582 41.4901 96.8327 41.3551C96.8071 41.2201 96.7297 41.1005 96.617 41.0219C96.5042 40.9433 96.3652 40.912 96.2297 40.9347H96.2235L93.3176 41.5023C93.1831 41.5307 93.0651 41.6105 92.9888 41.7249C92.9126 41.8392 92.8842 41.9788 92.9097 42.1139C92.9352 42.2489 93.0127 42.3685 93.1254 42.4471C93.2381 42.5257 93.3772 42.557 93.5127 42.5342Z" fill="#292A2E"/>
    <path d="M106.66 41.2325C106.786 41.2087 106.899 41.1398 106.977 41.0387C107.056 40.9376 107.095 40.8112 107.087 40.6833C107.079 40.5554 107.024 40.4349 106.934 40.3445C106.843 40.254 106.722 40.1998 106.594 40.1921L103.597 40.0247C103.458 40.0171 103.321 40.0649 103.217 40.1579C103.114 40.2508 103.051 40.3811 103.043 40.5202C103.036 40.6593 103.083 40.7958 103.176 40.8995C103.269 41.0033 103.4 41.0659 103.539 41.0736L106.536 41.2409C106.577 41.2428 106.619 41.24 106.66 41.2325Z" fill="#292A2E"/>
    <path d="M110.857 45.3037C110.987 46.5491 111.605 47.6924 112.575 48.4837C113.546 49.275 114.79 49.6498 116.036 49.5264C117.282 49.403 118.429 48.7913 119.225 47.825C120.021 46.8587 120.403 45.6165 120.286 44.3698C120.235 43.7468 120.059 43.1404 119.769 42.5868C119.478 42.0332 119.08 41.5437 118.596 41.1474C118.113 40.7511 117.555 40.4562 116.955 40.2801C116.355 40.1041 115.726 40.0505 115.105 40.1227C111.763 40.6209 110.599 42.7009 110.857 45.3037Z" fill="#F6A180"/>
    <g opacity="0.15">
        <path d="M100.881 50.6459C100.972 50.6296 101.055 50.5811 101.113 50.5092C101.171 50.4372 101.202 50.3467 101.199 50.2542C101.196 50.1616 101.16 50.0732 101.097 50.0051C101.035 49.9369 100.949 49.8936 100.857 49.8831L98.4959 49.6047L99.4214 45.8365C99.4451 45.7375 99.4287 45.6331 99.3757 45.5461C99.3227 45.4591 99.2375 45.3966 99.1386 45.3723C99.0397 45.3479 98.9351 45.3637 98.8478 45.4161C98.7605 45.4686 98.6975 45.5535 98.6725 45.6522L97.6391 49.8438C97.6259 49.8969 97.6242 49.9523 97.6341 50.0061C97.6439 50.06 97.6651 50.1111 97.6963 50.1561C97.7275 50.2011 97.7678 50.239 97.8148 50.2672C97.8617 50.2954 97.9141 50.3133 97.9684 50.3196L100.763 50.649C100.803 50.6541 100.842 50.653 100.881 50.6459Z" fill="#292A2E"/>
    </g>
    <path d="M106.004 52.508C106.004 52.508 102.312 54.3978 99.2513 54.4961C99.2513 54.4961 100.25 57.0228 103.392 56.0973C106.533 55.1717 106.004 52.508 106.004 52.508Z" fill="#F8FCFF"/>
    <path d="M356.102 380.751C306.452 380.751 266.203 340.502 266.203 290.853C266.203 241.203 306.452 200.954 356.102 200.954C405.751 200.954 446 241.203 446 290.853C446 340.502 405.751 380.751 356.102 380.751Z" fill="#0075FF"/>
    <path d="M297.033 308.727L312.493 336.963C314.368 340.387 313.112 344.682 309.688 346.557L285.349 359.883C281.925 361.758 277.63 360.502 275.755 357.078L260.295 328.842C258.42 325.418 259.676 321.123 263.1 319.248L287.439 305.922C290.863 304.047 295.158 305.303 297.033 308.727Z" fill="#0075FF"/>
    <path d="M330.634 305.988H327.019V301.462H315.997V305.988H312.382V298.227H313.039C313.342 298.227 313.604 298.201 313.823 298.151C314.042 298.1 314.244 297.999 314.429 297.847C314.547 297.729 314.649 297.569 314.733 297.367C314.834 297.165 314.91 296.954 314.96 296.735C315.011 296.516 315.053 296.305 315.087 296.103C315.12 295.884 315.146 295.682 315.163 295.496C315.264 294.384 315.331 293.246 315.365 292.083C315.415 290.92 315.457 289.774 315.491 288.645C315.542 286.977 315.567 285.283 315.567 283.564H328.46V298.227H330.634V305.988ZM324.794 298.227V286.825H319.056L318.904 292.564C318.904 292.951 318.896 293.398 318.879 293.904C318.862 294.409 318.828 294.923 318.778 295.446C318.727 295.968 318.66 296.474 318.575 296.962C318.491 297.451 318.373 297.873 318.221 298.227H324.794ZM340.675 283.336C342.04 283.336 343.271 283.555 344.366 283.994C345.462 284.432 346.389 285.055 347.147 285.864C347.905 286.657 348.487 287.609 348.891 288.721C349.296 289.833 349.498 291.064 349.498 292.412C349.498 293.727 349.296 294.948 348.891 296.078C348.487 297.207 347.905 298.184 347.147 299.01C346.389 299.836 345.453 300.485 344.341 300.957C343.245 301.412 341.998 301.631 340.599 301.614C339.201 301.614 337.953 301.387 336.858 300.932C335.779 300.46 334.861 299.819 334.102 299.01C333.361 298.201 332.788 297.241 332.383 296.128C331.996 295.016 331.802 293.802 331.802 292.488C331.802 291.14 332.004 289.909 332.409 288.797C332.83 287.668 333.42 286.699 334.178 285.89C334.953 285.081 335.889 284.457 336.984 284.019C338.08 283.564 339.31 283.336 340.675 283.336ZM335.569 292.437C335.569 293.213 335.67 293.954 335.872 294.662C336.091 295.353 336.403 295.968 336.807 296.507C337.229 297.047 337.76 297.485 338.4 297.822C339.04 298.142 339.79 298.311 340.65 298.328C341.476 298.344 342.209 298.201 342.849 297.898C343.49 297.578 344.021 297.148 344.442 296.609C344.863 296.052 345.184 295.42 345.403 294.713C345.622 293.988 345.731 293.238 345.731 292.463C345.731 291.704 345.622 290.971 345.403 290.263C345.2 289.555 344.889 288.932 344.467 288.392C344.063 287.836 343.54 287.398 342.9 287.078C342.259 286.758 341.509 286.598 340.65 286.598C339.807 286.598 339.066 286.758 338.425 287.078C337.785 287.398 337.254 287.828 336.833 288.367C336.411 288.906 336.091 289.53 335.872 290.238C335.67 290.929 335.569 291.662 335.569 292.437ZM356.9 286.825C356.867 287.937 356.85 289.067 356.85 290.213C356.85 291.342 356.825 292.463 356.774 293.575C356.757 293.996 356.74 294.443 356.724 294.915C356.707 295.387 356.665 295.867 356.597 296.356C356.547 296.828 356.454 297.3 356.319 297.771C356.201 298.243 356.033 298.69 355.813 299.111C355.561 299.566 355.249 299.946 354.878 300.249C354.524 300.552 354.128 300.797 353.69 300.982C353.269 301.167 352.813 301.302 352.325 301.387C351.836 301.454 351.339 301.488 350.833 301.488H350.302V298.252H350.631C350.951 298.252 351.238 298.193 351.49 298.075C351.743 297.957 351.962 297.805 352.148 297.62C352.333 297.434 352.485 297.232 352.603 297.013C352.721 296.777 352.805 296.55 352.856 296.33C352.957 295.943 353.033 295.505 353.083 295.016C353.134 294.51 353.167 293.996 353.184 293.474C353.201 292.934 353.218 292.412 353.235 291.906C353.252 291.401 353.269 290.946 353.285 290.541C353.319 289.429 353.328 288.317 353.311 287.204C353.311 286.075 353.328 284.862 353.361 283.564H366.027V301.462H362.361V286.825H356.9ZM369.82 301.462V283.564H382.207V286.825H373.485V301.462H369.82ZM388.199 295.117L396.946 283.564H399.904V301.462H396.238V290.01L387.491 301.462H384.534V283.564H388.199V295.117Z" fill="white"/>
    <path d="M214.083 30.8586C214.813 27.935 214.952 24.8949 214.49 21.9171C214.028 18.9393 212.975 16.084 211.393 13.5192C209.811 10.9543 207.732 8.73184 205.279 6.98243C202.825 5.23303 200.046 3.99207 197.106 3.33259C185.171 0.648224 173.135 8.1124 170.217 19.9928C169.461 23.0586 169.357 26.2493 169.913 29.3577C170.47 32.4662 171.673 35.4229 173.446 38.0361C177.257 43.6725 178.628 50.6078 176.978 57.2088L176.972 57.2329L190.582 60.6337L190.588 60.6096C192.235 54.0172 196.692 48.534 202.703 45.3622C205.515 43.8839 207.983 41.8275 209.944 39.3278C211.906 36.8282 213.316 33.9419 214.083 30.8586Z" fill="#FF9500"/>
    <path d="M200.669 25.0175C200.493 24.6202 200.095 24.3013 199.484 24.0747C198.45 23.691 197.085 23.9918 195.748 24.9069L195.62 24.9927L195.572 24.8471C195.488 24.5852 195.382 24.331 195.255 24.0873C194.712 23.0587 193.572 21.8623 191.209 21.9939C190.418 22.0253 189.645 22.2378 188.949 22.615L188.855 22.6681L188.797 22.577C188.661 22.3734 188.505 22.1835 188.333 22.01C187.287 20.9518 185.867 20.7899 184.86 20.8408C184.581 20.8554 184.317 20.9716 184.117 21.1675C183.917 21.3635 183.796 21.6256 183.776 21.9046L181.195 58.4598C181.191 58.5212 181.211 58.5818 181.251 58.6284C181.291 58.675 181.348 58.7037 181.41 58.7082C181.471 58.7126 181.532 58.6926 181.578 58.6523C181.625 58.6121 181.654 58.555 181.658 58.4936L184.238 21.9392C184.249 21.7728 184.321 21.6164 184.44 21.4994C184.559 21.3824 184.717 21.313 184.883 21.3042C185.795 21.2588 187.076 21.4003 188.002 22.3379C188.155 22.4908 188.291 22.6584 188.411 22.8384L188.47 22.9273L188.387 22.9926C187.693 23.5519 187.194 24.3157 186.96 25.1753C186.537 26.6279 186.809 28.2534 187.567 28.7956C187.713 28.9025 187.886 28.9674 188.066 28.9831C188.246 28.9989 188.427 28.9649 188.589 28.885C188.933 28.7219 189.523 28.2115 189.618 26.6319C189.699 25.24 189.532 24.0769 189.12 23.1678L189.074 23.0706L189.169 23.0175C189.805 22.6746 190.512 22.4831 191.234 22.4579C192.908 22.3655 194.157 23.0011 194.842 24.3037C194.995 24.5971 195.115 24.9067 195.2 25.2268L195.22 25.2987L195.163 25.3466C195.052 25.4369 194.943 25.5308 194.835 25.6283C193.59 26.7523 192.388 28.4937 192.689 29.6633C192.75 29.8904 192.874 30.0954 193.048 30.2535C193.222 30.4117 193.438 30.5164 193.669 30.5551L193.69 30.5601C194.155 30.6687 194.621 30.4573 194.998 29.9681C195.737 29.0119 196.051 27.1571 195.749 25.5554L195.735 25.4851L195.794 25.4423C196.979 24.5663 198.167 24.2094 199.094 24.4399C199.173 24.4595 199.248 24.4829 199.323 24.5086C200.473 24.9381 200.302 25.5475 200.281 25.6164L186.489 59.7104C186.477 59.7387 186.472 59.7689 186.472 59.7993C186.472 59.8298 186.479 59.8599 186.49 59.8879C186.502 59.9159 186.52 59.9413 186.541 59.9627C186.563 59.984 186.589 60.0008 186.617 60.0122C186.674 60.0331 186.737 60.0315 186.793 60.0077C186.849 59.984 186.894 59.9398 186.919 59.8842L200.707 25.7954C200.796 25.5411 200.782 25.2621 200.669 25.0175ZM189.154 26.6027C189.071 27.994 188.593 28.3698 188.39 28.4652C188.277 28.5225 188.147 28.5376 188.024 28.5078C187.957 28.4903 187.894 28.4608 187.837 28.4208C187.314 28.0445 187.005 26.6728 187.404 25.3049C187.608 24.5849 188.012 23.9378 188.571 23.4396L188.69 23.3355L188.753 23.4827C189.118 24.4797 189.255 25.5458 189.154 26.6027ZM194.631 29.6847C194.364 30.0307 194.082 30.1742 193.795 30.1076L193.752 30.097C193.607 30.0773 193.471 30.0144 193.361 29.9165C193.252 29.8186 193.174 29.6902 193.139 29.5478C192.929 28.7312 193.791 27.1941 195.147 25.9734L195.313 25.8236L195.357 26.0304C195.525 27.4076 195.227 28.9109 194.631 29.6847Z" fill="white"/>
    <path d="M176.984 57.2158L190.594 60.6145L190.396 61.41C189.945 63.2148 188.796 64.7667 187.201 65.7242C185.606 66.6817 183.696 66.9664 181.891 66.5157C180.087 66.065 178.535 64.9158 177.577 63.3209C176.62 61.726 176.335 59.8161 176.786 58.0113L176.984 57.2158Z" fill="#292A2E"/>
</svg>
