<svg width="148" height="128" viewBox="0 0 148 128" fill="none" xmlns="http://www.w3.org/2000/svg">
    <path d="M73.457 14.5327L0.919922 37.6376L29.7026 128L102.24 104.895L73.457 14.5327Z" fill="#0075FF"/>
    <g opacity="0.61">
        <path d="M25.4877 95.8744C25.4207 95.8747 25.3553 95.8534 25.3012 95.8139C25.247 95.7743 25.2069 95.7185 25.1868 95.6545L16.6634 68.8944C16.6508 68.8549 16.6461 68.8133 16.6496 68.7719C16.653 68.7306 16.6646 68.6903 16.6837 68.6535C16.7027 68.6166 16.7288 68.5839 16.7605 68.5571C16.7922 68.5304 16.8289 68.5101 16.8684 68.4975L78.294 48.9323C78.3738 48.9069 78.4604 48.9142 78.5349 48.9527C78.6093 48.9911 78.6654 49.0576 78.6908 49.1374L87.2138 75.8975C87.2266 75.937 87.2314 75.9786 87.228 76.02C87.2245 76.0614 87.213 76.1016 87.1939 76.1385C87.1748 76.1754 87.1487 76.2081 87.1169 76.2348C87.0851 76.2615 87.0483 76.2817 87.0087 76.2941L25.5836 95.8596C25.5526 95.8695 25.5203 95.8745 25.4877 95.8744ZM17.3608 69.0036L25.6923 95.1615L86.5157 75.7883L78.183 49.6301L17.3608 69.0036Z" fill="white"/>
    </g>
    <g opacity="0.61">
        <path d="M27.3495 101.72C27.274 101.72 27.201 101.693 27.1437 101.644C27.0864 101.595 27.0485 101.527 27.037 101.453C27.0254 101.378 27.0408 101.302 27.0806 101.238C27.1203 101.174 27.1817 101.126 27.2536 101.103L88.6789 81.5378C88.7587 81.5124 88.8453 81.5197 88.9198 81.5582C88.9942 81.5967 89.0502 81.6631 89.0756 81.7429C89.101 81.8228 89.0937 81.9094 89.0552 81.9838C89.0167 82.0582 88.9503 82.1143 88.8705 82.1397L27.4454 101.704C27.4144 101.715 27.3821 101.72 27.3495 101.72Z" fill="white"/>
    </g>
    <g opacity="0.61">
        <path d="M28.911 106.618C28.8357 106.618 28.763 106.591 28.7058 106.542C28.6487 106.493 28.611 106.425 28.5994 106.351C28.5879 106.276 28.6033 106.2 28.6429 106.136C28.6825 106.072 28.7436 106.024 28.8154 106.002L90.2405 86.4363C90.2802 86.4228 90.3222 86.4174 90.3641 86.4203C90.4059 86.4233 90.4468 86.4346 90.4842 86.4535C90.5217 86.4724 90.555 86.4986 90.5822 86.5306C90.6094 86.5625 90.63 86.5996 90.6427 86.6395C90.6554 86.6795 90.6601 86.7216 90.6563 86.7634C90.6526 86.8052 90.6406 86.8459 90.621 86.883C90.6014 86.92 90.5746 86.9529 90.5421 86.9795C90.5097 87.0061 90.4722 87.026 90.432 87.038L29.0069 106.603C28.976 106.613 28.9436 106.619 28.911 106.618Z" fill="white"/>
    </g>
    <g opacity="0.61">
        <path d="M30.4718 111.517C30.3965 111.517 30.3237 111.49 30.2665 111.441C30.2093 111.392 30.1716 111.324 30.16 111.249C30.1484 111.175 30.1638 111.099 30.2034 111.035C30.243 110.971 30.3042 110.923 30.3759 110.9L91.801 91.3343C91.8808 91.3089 91.9675 91.3162 92.0419 91.3546C92.1163 91.3931 92.1724 91.4595 92.1979 91.5394C92.2233 91.6192 92.216 91.7058 92.1775 91.7803C92.1391 91.8547 92.0726 91.9108 91.9928 91.9362L30.5679 111.501C30.5369 111.512 30.5045 111.517 30.4718 111.517Z" fill="white"/>
    </g>
    <g opacity="0.61">
        <path d="M32.0304 116.416C31.9551 116.416 31.8823 116.389 31.8251 116.339C31.7679 116.29 31.7302 116.223 31.7186 116.148C31.707 116.074 31.7224 115.998 31.762 115.934C31.8016 115.869 31.8628 115.822 31.9345 115.799L93.3598 96.233C93.3993 96.2204 93.441 96.2157 93.4823 96.2192C93.5236 96.2227 93.5638 96.2343 93.6007 96.2534C93.6375 96.2724 93.6703 96.2985 93.697 96.3302C93.7238 96.3619 93.744 96.3986 93.7566 96.4381C93.7692 96.4777 93.7738 96.5193 93.7703 96.5606C93.7668 96.6019 93.7552 96.6422 93.7362 96.679C93.7171 96.7158 93.691 96.7486 93.6593 96.7753C93.6276 96.8021 93.5909 96.8223 93.5514 96.8349L32.1263 116.4C32.0954 116.41 32.063 116.416 32.0304 116.416Z" fill="white"/>
    </g>
    <g opacity="0.61">
        <path d="M15.3351 63.9967C15.2598 63.9966 15.187 63.9696 15.1298 63.9206C15.0726 63.8715 15.0349 63.8037 15.0233 63.7292C15.0117 63.6548 15.0271 63.5787 15.0667 63.5146C15.1063 63.4505 15.1675 63.4027 15.2392 63.3797L76.6645 43.8145C76.7443 43.7891 76.831 43.7964 76.9054 43.8349C76.9798 43.8734 77.0359 43.9399 77.0613 44.0197C77.0867 44.0995 77.0793 44.1861 77.0409 44.2605C77.0024 44.335 76.9359 44.391 76.8561 44.4164L15.431 63.9819C15.4 63.9917 15.3676 63.9967 15.3351 63.9967Z" fill="white"/>
    </g>
    <g opacity="0.61">
        <path d="M33.632 51.9627C33.5566 51.9626 33.4838 51.9356 33.4267 51.8866C33.3695 51.8375 33.3317 51.7697 33.3202 51.6953C33.3086 51.6208 33.324 51.5447 33.3636 51.4806C33.4032 51.4166 33.4643 51.3687 33.5361 51.3458L74.8708 38.1796C74.9503 38.1555 75.036 38.1637 75.1096 38.2023C75.1831 38.2409 75.2384 38.307 75.2636 38.3861C75.2888 38.4653 75.2819 38.5511 75.2443 38.6252C75.2066 38.6992 75.1414 38.7555 75.0626 38.7818L33.7279 51.9479C33.6968 51.9576 33.6645 51.9626 33.632 51.9627Z" fill="white"/>
    </g>
    <g opacity="0.61">
        <path d="M70.8039 25.4158L29.4707 38.5863L30.0844 40.5123L71.4177 27.3418L70.8039 25.4158Z" fill="white"/>
    </g>
    <g opacity="0.61">
        <path d="M31.7042 45.9132C31.6289 45.9131 31.5561 45.8861 31.4989 45.8371C31.4418 45.788 31.404 45.7202 31.3924 45.6457C31.3809 45.5713 31.3962 45.4952 31.4358 45.4311C31.4754 45.367 31.5366 45.3192 31.6083 45.2962L72.9428 32.1303C72.9824 32.1177 73.024 32.113 73.0653 32.1165C73.1066 32.12 73.1469 32.1316 73.1837 32.1507C73.2206 32.1697 73.2533 32.1958 73.2801 32.2275C73.3069 32.2592 73.3271 32.2959 73.3397 32.3354C73.3523 32.3749 73.357 32.4165 73.3535 32.4579C73.35 32.4992 73.3384 32.5394 73.3194 32.5763C73.3003 32.6131 73.2742 32.6459 73.2425 32.6726C73.2108 32.6994 73.1742 32.7197 73.1346 32.7323L31.8001 45.8977C31.7692 45.9078 31.7368 45.913 31.7042 45.9132Z" fill="white"/>
    </g>
    <path d="M19.5784 57.5563C24.2589 57.5563 28.0533 53.762 28.0533 49.0815C28.0533 44.4009 24.2589 40.6066 19.5784 40.6066C14.8979 40.6066 11.1035 44.4009 11.1035 49.0815C11.1035 53.762 14.8979 57.5563 19.5784 57.5563Z" fill="#F3F5FD"/>
    <path d="M147.421 0H63.2031V107.895H147.421V0Z" fill="white"/>
    <path d="M85.4884 6.8631H69.8379V20.8738H85.4884V6.8631Z" fill="#E0ECFF"/>
    <path d="M140.788 41.3423H126.799V74.9325H140.788V41.3423Z" fill="#0CBC8B"/>
    <path d="M140.788 39.3201H69.8379V43.3648H140.788V39.3201Z" fill="#E0ECFF"/>
    <path d="M141.125 75.2693H69.502V39.3201H70.1749V74.5963H140.452V39.3201H141.125V75.2693Z" fill="#E0ECFF"/>
    <path d="M83.2103 41.3423H82.5371V74.9328H83.2103V41.3423Z" fill="#E0ECFF"/>
    <path d="M140.789 47.3106H69.8418V47.9838H140.789V47.3106Z" fill="#E0ECFF"/>
    <path d="M140.789 51.8605H69.8418V52.5337H140.789V51.8605Z" fill="#E0ECFF"/>
    <path d="M140.789 56.4101H69.8418V57.0833H140.789V56.4101Z" fill="#E0ECFF"/>
    <path d="M140.789 60.96H69.8418V61.6332H140.789V60.96Z" fill="#E0ECFF"/>
    <path d="M140.789 65.5096H69.8418V66.1828H140.789V65.5096Z" fill="#E0ECFF"/>
    <path d="M140.789 70.0594H69.8418V70.7326H140.789V70.0594Z" fill="#E0ECFF"/>
    <path d="M112.769 41.3423H112.096V74.9328H112.769V41.3423Z" fill="#E0ECFF"/>
    <path d="M127.134 41.3423H126.461V74.9328H127.134V41.3423Z" fill="#E0ECFF"/>
    <path d="M140.788 93.5391H119.285V101.226H140.788V93.5391Z" fill="#0075FF"/>
    <path d="M140.788 81.505H69.8379V82.1782H140.788V81.505Z" fill="#E0ECFF"/>
    <path d="M140.788 87.3539H69.8379V88.0271H140.788V87.3539Z" fill="#E0ECFF"/>
    <path d="M140.786 14.6884H91.793V15.3616H140.786V14.6884Z" fill="#E0ECFF"/>
    <path d="M116.848 20.5373H91.793V21.2105H116.848V20.5373Z" fill="#E0ECFF"/>
    <path d="M140.788 27.0239H69.8379V27.6971H140.788V27.0239Z" fill="#E0ECFF"/>
    <path d="M140.788 32.8727H69.8379V33.5459H140.788V32.8727Z" fill="#E0ECFF"/>
    <path d="M140.786 7.10248H91.793V9.85986H140.786V7.10248Z" fill="#E0ECFF"/>
</svg>
